<?xml version="1.0" encoding="UTF-8"?>
<svg id="Layer_1" data-name="Layer 1" xmlns="http://www.w3.org/2000/svg" viewBox="0 0 75 75">
  <defs>
    <style>
      .cls-1 {
        fill: #164b9e;
        stroke-width: 0px;
      }
    </style>
  </defs>
  <path class="cls-1" d="M55.24,40.49c-8.14,0-14.76,6.62-14.76,14.76s6.62,14.76,14.76,14.76,14.76-6.62,14.76-14.76-6.62-14.76-14.76-14.76ZM54.88,63.23c-1.02,1.02-2.37,1.58-3.82,1.58s-2.8-.56-3.82-1.58-1.58-2.37-1.58-3.82.56-2.8,1.58-3.82l3.73-3.73c1.01-1.02,2.37-1.58,3.82-1.58s2.8.56,3.82,1.58c.58.58.58,1.53,0,2.11-.58.58-1.53.58-2.11,0-.45-.45-1.06-.7-1.71-.7s-1.25.25-1.71.7l-3.73,3.73c-.94.94-.94,2.47,0,3.41.45.45,1.06.7,1.71.7s1.25-.25,1.71-.7c.58-.58,1.53-.58,2.11,0,.58.58.58,1.53,0,2.11h0ZM63.23,54.88l-3.73,3.73c-1.02,1.02-2.37,1.58-3.82,1.58s-2.8-.56-3.82-1.58c-.58-.58-.58-1.53,0-2.11.58-.58,1.53-.58,2.11,0,.45.45,1.06.7,1.71.7s1.25-.25,1.71-.7l3.73-3.73c.45-.45.7-1.06.7-1.71,0-.65-.25-1.25-.7-1.7-.45-.46-1.06-.71-1.71-.71s-1.25.25-1.71.7c-.58.58-1.53.58-2.11,0-.58-.58-.58-1.53,0-2.11,1.02-1.02,2.37-1.58,3.82-1.58,1.45,0,2.8.56,3.82,1.58,1.02,1.01,1.58,2.37,1.58,3.81,0,1.45-.56,2.8-1.58,3.82h0ZM31,13.9c1.85-5.57,4.28-8.9,6.5-8.9s4.65,3.33,6.5,8.9c1.03,3.12,1.84,6.76,2.38,10.72h-17.77c.55-3.97,1.35-7.6,2.38-10.72ZM46.99,12.91c-1.02-3.09-2.21-5.55-3.53-7.36,10.74,2,19.64,9.3,23.88,19.07h-17.78c-.57-4.33-1.44-8.31-2.57-11.71ZM49.92,27.77h18.6c.97,3.07,1.49,6.34,1.49,9.73,0,2.29-.24,4.52-.69,6.68-3.28-4.16-8.37-6.84-14.06-6.84-1.69,0-3.32.24-4.87.67,0-.17,0-.34,0-.52,0-3.34-.16-6.61-.46-9.73h0ZM46.76,27.77c.31,3.11.47,6.38.47,9.73,0,.58,0,1.17-.02,1.75-3.44,1.73-6.25,4.54-7.98,7.98h-11c-.31-3.11-.47-6.38-.47-9.73s.16-6.62.47-9.73h18.52ZM41.51,66.71c-1.3,2.12-2.69,3.29-4.01,3.29-2.22,0-4.65-3.33-6.5-8.9-1.03-3.12-1.84-6.76-2.38-10.72h9.4c-.44,1.55-.67,3.18-.67,4.87,0,4.36,1.57,8.36,4.17,11.47h0ZM44.18,69.31c-.24.05-.48.1-.72.14.11-.15.22-.31.32-.46.13.11.26.22.4.32h0ZM28.01,62.09c1.02,3.09,2.21,5.55,3.53,7.36-10.74-2-19.64-9.3-23.88-19.07h17.78c.57,4.33,1.44,8.31,2.57,11.71h0ZM25.08,47.23H6.49c-.97-3.07-1.49-6.34-1.49-9.73s.52-6.66,1.49-9.73h18.6c-.3,3.12-.46,6.39-.46,9.73s.16,6.61.46,9.73ZM25.44,24.62H7.66C11.9,14.85,20.8,7.55,31.54,5.55c-1.32,1.81-2.5,4.28-3.53,7.36-1.13,3.41-2,7.38-2.57,11.71Z"/>
</svg>