<?xml version="1.0" encoding="UTF-8"?>
<svg id="Layer_1" data-name="Layer 1" xmlns="http://www.w3.org/2000/svg" viewBox="0 0 75 75">
  <defs>
    <style>
      .cls-1 {
        fill: #164b9e;
        stroke-width: 0px;
      }
    </style>
  </defs>
  <g id="Layer_23" data-name="Layer 23">
    <circle class="cls-1" cx="41.98" cy="37.5" r="1.12"/>
    <path class="cls-1" d="M63.28,29.66v2.24h-9.95c.27.73.48,1.48.64,2.24h9.3v2.24h-9.02c.02.37.06.74.06,1.12s-.03.75-.06,1.12h9.02v2.24h-9.3c-.16.76-.38,1.51-.64,2.24h9.94v2.24h-10.74l3.36,3.36h9.62v-22.41h-15.52c.92,1.02,1.71,2.15,2.36,3.36h10.92Z"/>
    <path class="cls-1" d="M47.19,51.21l13.47,13.47c1.09,1.13,2.89,1.16,4.02.06,1.13-1.09,1.16-2.89.06-4.02-.02-.02-.04-.04-.06-.06l-13.47-13.47c-1.1,1.56-2.46,2.91-4.02,4.02Z"/>
    <path class="cls-1" d="M48.24,5H9.48c-2.48,0-4.48,2.01-4.48,4.48v6.72h32.04l11.21-11.21ZM36.38,13.97H9.48v-2.24h26.9v2.24ZM36.38,9.48H9.48v-2.24h26.9v2.24Z"/>
    <path class="cls-1" d="M34.4,36.38l-2,1c-.32.16-.69.16-1,0l-2-1h-.59l-1.39.69v.86l1.39.69h6.85c.47,0,.9.3,1.06.75,1.03,2.92,4.23,4.45,7.15,3.42,2.92-1.03,4.45-4.23,3.42-7.15-1.03-2.92-4.23-4.45-7.15-3.42-1.6.56-2.85,1.82-3.42,3.42-.16.45-.58.75-1.06.75h-1.25ZM41.98,34.14c1.86,0,3.36,1.51,3.36,3.36s-1.51,3.36-3.36,3.36-3.36-1.51-3.36-3.36,1.51-3.36,3.36-3.36Z"/>
    <path class="cls-1" d="M11.72,45.34v-2.24h9.95c-.26-.73-.46-1.48-.62-2.24h-9.33v-2.24h9.02c-.03-.37-.05-.74-.05-1.12s.02-.75.05-1.12h-9.02v-2.24h9.33c.16-.76.36-1.51.62-2.24h-9.95v-2.24h10.92c.65-1.21,1.44-2.34,2.36-3.36h-15.52v22.41h15.52c-.92-1.02-1.71-2.15-2.36-3.36h-10.92Z"/>
    <path class="cls-1" d="M22.93,37.5c0,8.05,6.52,14.57,14.57,14.57s14.57-6.52,14.57-14.57-6.52-14.57-14.57-14.57c-8.04,0-14.56,6.53-14.57,14.57ZM49.83,37.5c0,4.33-3.53,7.84-7.86,7.83-3.02,0-5.77-1.74-7.07-4.47h-6.37c-.17,0-.34-.04-.5-.11l-2.24-1.12c-.38-.19-.62-.58-.62-1.01v-2.24c0-.42.24-.81.62-1l2.24-1.12c.16-.08.33-.12.5-.12h1.12c.17,0,.35.04.5.12l1.74.87,1.74-.87c.16-.08.33-.12.5-.12h.76c1.86-3.91,6.55-5.57,10.46-3.71,2.73,1.3,4.46,4.05,4.47,7.07Z"/>
    <path class="cls-1" d="M38.29,18.12c-.21.21-.5.33-.79.33H5v47.07c0,2.48,2.01,4.48,4.48,4.48h56.03c2.48,0,4.48-2.01,4.48-4.48V13.97h-27.55l-4.15,4.15ZM66.64,24.05c.62,0,1.12.5,1.12,1.12v24.66c0,.62-.5,1.12-1.12,1.12h-8.5l8.13,8.13c1.98,1.98,1.98,5.2,0,7.19s-5.2,1.98-7.19,0l-13.86-13.86c-5.71,2.98-12.63,2.41-17.77-1.47H8.36c-.62,0-1.12-.5-1.12-1.12v-24.66c0-.62.5-1.12,1.12-1.12h19.09c5.95-4.48,14.14-4.48,20.09,0h19.09Z"/>
    <path class="cls-1" d="M65.52,5h-14.1l-6.72,6.72h25.31v-2.24c0-2.48-2.01-4.48-4.48-4.48Z"/>
  </g>
</svg>