<?xml version="1.0" encoding="UTF-8"?>
<svg id="Layer_1" data-name="Layer 1" xmlns="http://www.w3.org/2000/svg" viewBox="0 0 75 75">
  <defs>
    <style>
      .cls-1 {
        fill: #164b9e;
        stroke-width: 0px;
      }
    </style>
  </defs>
  <path class="cls-1" d="M64.58,5H10.42c-2.99,0-5.42,2.42-5.42,5.42v5.41h65v-5.41c0-2.99-2.42-5.42-5.42-5.42ZM46.98,11.77H11.77v-2.71h35.21v2.71ZM53.75,11.77h-2.71v-2.71h2.71v2.71ZM59.17,11.77h-2.71v-2.71h2.71v2.71ZM64.58,11.77h-2.71v-2.71h2.71v2.71Z"/>
  <path class="cls-1" d="M37.5,37.46c-9.71,0-17.6,7.89-17.6,17.6,0,4.78,1.9,9.25,5.35,12.61l2.4,2.33h19.72l2.4-2.33c3.45-3.36,5.35-7.83,5.35-12.61,0-9.71-7.89-17.6-17.6-17.6ZM41.15,53.37c.26.53.42,1.12.42,1.73,0,2.19-1.86,4.06-4.06,4.06-.62,0-1.2-.16-1.73-.42l-1.76,1.76-1.91-1.91,1.76-1.76c-.26-.53-.42-1.11-.42-1.73,0-2.21,1.86-4.06,4.06-4.06.62,0,1.2.16,1.73.41l8.12-8.12,1.91,1.91-8.12,8.12Z"/>
  <path class="cls-1" d="M5,18.54v46.04c0,2.98,2.42,5.42,5.42,5.42h6.12l-.41-.6c-2.84-4.25-4.36-9.21-4.36-14.34,0-14.19,11.54-25.73,25.73-25.73s25.73,11.54,25.73,25.73c0,5.13-1.52,10.09-4.36,14.34l-.41.6h6.12c2.99,0,5.42-2.44,5.42-5.42V18.54H5Z"/>
</svg>