<svg xmlns="http://www.w3.org/2000/svg" xmlns:xlink="http://www.w3.org/1999/xlink" id="b" viewBox="0 0 264.01 67.95"><defs><style>.j{fill:#683685;}.j,.k,.l,.m,.n,.o,.p,.q,.r{stroke-width:0px;}.k{fill:#000;}.l{fill:#fff;}.m{fill:url(#e);}.n{fill:url(#f);}.o{fill:url(#d);}.p{fill:url(#i);}.q{fill:url(#h);}.r{fill:url(#g);}</style><linearGradient id="d" x1="27.06" y1="18.42" x2="41.99" y2="18.42" gradientUnits="userSpaceOnUse"><stop offset="0" stop-color="#d22c35"></stop><stop offset=".65" stop-color="#683685"></stop><stop offset="1" stop-color="#683685"></stop></linearGradient><radialGradient id="e" cx="179.75" cy="-391.61" fx="179.75" fy="-391.61" r="16.27" gradientTransform="translate(-152.28 522.38) scale(1.21)" gradientUnits="userSpaceOnUse"><stop offset="0" stop-color="#d22c35"></stop><stop offset=".64" stop-color="#68357e"></stop><stop offset="1" stop-color="#68357e"></stop></radialGradient><radialGradient id="f" cx="179.75" fx="179.75" r="16.28" xlink:href="#e"></radialGradient><radialGradient id="g" cx="5207.48" cy="33818.74" fx="5207.48" fy="33818.74" r="166.78" gradientTransform="translate(-548.43 -3906.05) scale(.12)" xlink:href="#e"></radialGradient><radialGradient id="h" cx="5207.49" cy="33818.74" fx="5207.49" fy="33818.74" r="166.77" gradientTransform="translate(-548.43 -3906.05) scale(.12)" xlink:href="#e"></radialGradient><radialGradient id="i" cx="5207.49" cy="33818.74" fx="5207.49" fy="33818.74" r="166.78" gradientTransform="translate(-548.43 -3906.05) scale(.12)" gradientUnits="userSpaceOnUse"><stop offset="0" stop-color="#d22c35"></stop><stop offset=".64" stop-color="#683685"></stop><stop offset="1" stop-color="#683685"></stop></radialGradient></defs><g id="c"><rect class="l" x=".49" y=".32" width="263.01" height="67.08" rx="3.43" ry="3.43"></rect><path class="j" d="M260.7,0H3.31C1.49,0,0,1.49,0,3.31v61.32c0,1.83,1.49,3.31,3.31,3.31h257.38c1.83,0,3.31-1.49,3.31-3.31V3.31c0-1.83-1.49-3.31-3.31-3.31ZM1,64.63V3.31C1,2.04,2.04,1,3.31,1h154.56v65.95H3.31c-1.28,0-2.32-1.04-2.32-2.32Z"></path><path class="j" d="M63.39,27.44v.53h-1.59v.8h1.5v.53h-1.5v.89h1.67v.53h-2.25v-3.27h2.17Z"></path><path class="j" d="M64.56,27.22v3.5h-.55v-3.5h.55Z"></path><path class="j" d="M65.84,27.74c0,.2-.16.33-.36.33s-.35-.15-.35-.33.15-.33.35-.33.36.14.36.33ZM65.76,28.5v2.22h-.55v-2.22h.55Z"></path><path class="j" d="M68.15,28.83h0v-.33h.53v2.04c0,.8-.42,1.29-1.25,1.29-.42,0-.79-.09-1.1-.37l.33-.45c.22.2.46.32.76.32.52,0,.7-.27.7-.76v-.14h0c-.17.22-.44.32-.73.32-.65,0-1.11-.49-1.11-1.14s.42-1.17,1.09-1.17c.31,0,.6.12.77.39ZM67.5,30.25c.39,0,.66-.26.66-.65s-.27-.65-.66-.65-.65.27-.65.66c0,.37.3.64.65.64Z"></path><path class="j" d="M69.96,27.74c0,.2-.16.33-.36.33s-.35-.15-.35-.33.15-.33.35-.33.36.14.36.33ZM69.88,28.5v2.22h-.55v-2.22h.55Z"></path><path class="j" d="M71.08,27.22v1.56h.01c.19-.24.46-.34.75-.34.66,0,1.07.54,1.07,1.17,0,.66-.42,1.17-1.09,1.17-.31,0-.6-.12-.77-.39h0v.33h-.53v-3.5h.55ZM71.71,30.27c.38,0,.65-.29.65-.67,0-.39-.28-.67-.66-.67s-.65.29-.65.67.27.67.65.67Z"></path><path class="j" d="M74,27.22v3.5h-.55v-3.5h.55Z"></path><path class="j" d="M76.78,29.64v.16h-1.69c.04.32.28.53.6.53.25,0,.44-.11.6-.3l.4.3c-.24.3-.56.44-.94.44-.68,0-1.21-.47-1.21-1.17s.53-1.17,1.21-1.17,1.04.53,1.04,1.2ZM76.22,29.38c0-.35-.24-.53-.57-.53s-.53.21-.57.53h1.14Z"></path><path class="j" d="M80.04,27.2l-.04.47c-.09-.02-.16-.03-.23-.03-.25,0-.36.12-.36.44v.42h.51v.47h-.51v1.75h-.55v-1.75h-.46v-.47h.46v-.35c0-.73.25-.99.83-.99.08,0,.24,0,.35.03Z"></path><path class="j" d="M82.6,29.61c0,.69-.53,1.17-1.21,1.17s-1.21-.47-1.21-1.17.53-1.17,1.21-1.17,1.21.47,1.21,1.17ZM81.39,30.27c.39,0,.65-.3.65-.67s-.28-.67-.66-.67-.65.29-.65.67.28.67.65.67Z"></path><path class="j" d="M84.54,28.47v.54c-.11-.03-.18-.04-.27-.04-.42,0-.6.3-.6.59v1.16h-.55v-2.22h.55v.35h0c.12-.25.37-.41.66-.41.08,0,.12.01.2.03Z"></path><path class="j" d="M86.91,27.44v2.07c0,.3.17.74.74.74s.74-.43.74-.74v-2.07h.58v2.09c0,.64-.45,1.26-1.32,1.26s-1.32-.62-1.32-1.26v-2.09h.58Z"></path><path class="j" d="M92.02,29.61c0,.63-.42,1.17-1.07,1.17-.3,0-.57-.1-.75-.34h-.01v1.34h-.55v-3.27h.53v.33h0c.18-.28.47-.39.77-.39.67,0,1.09.5,1.09,1.17ZM90.82,30.27c.37,0,.65-.28.65-.67,0-.32-.22-.67-.66-.67-.37,0-.65.29-.65.67s.29.67.65.67Z"></path><path class="j" d="M94.67,27.85v.64h.61v.47h-.61v.99c0,.24.09.35.31.35.14,0,.25-.03.3-.07v.47c-.11.05-.31.07-.44.07-.52,0-.73-.2-.73-.76v-1.04h-.46v-.47h.46v-.64h.55Z"></path><path class="j" d="M98.02,29.61c0,.69-.53,1.17-1.21,1.17s-1.21-.47-1.21-1.17.53-1.17,1.21-1.17,1.21.47,1.21,1.17ZM96.81,30.27c.39,0,.65-.3.65-.67s-.28-.67-.66-.67-.65.29-.65.67.28.67.65.67Z"></path><path class="j" d="M101.93,27.44v.5h-1.32v.65c.07-.02.19-.04.34-.04.64,0,1.09.43,1.09,1.09s-.49,1.13-1.18,1.13c-.53,0-.91-.26-1.06-.75l.58-.16c.08.24.25.38.54.38.33,0,.57-.24.57-.56,0-.42-.3-.63-.77-.63-.24,0-.49.06-.68.16l.03-1.77h1.86Z"></path><path class="j" d="M104.88,29.08c0,1.11-.43,1.69-1.18,1.69s-1.18-.58-1.18-1.69.44-1.69,1.18-1.69,1.18.57,1.18,1.69ZM103.7,30.25c.42,0,.63-.44.63-1.17s-.21-1.17-.63-1.17-.62.43-.62,1.17.2,1.17.63,1.17Z"></path><path class="j" d="M106.93,28.25c0,.45-.37.86-.86.86-.47,0-.86-.37-.86-.86,0-.46.37-.86.86-.86s.86.38.86.86ZM106.07,28.66c.23,0,.42-.18.42-.42s-.19-.42-.42-.42-.41.18-.41.42.19.42.42.42ZM107.94,27.29l.38.18-1.92,3.39-.38-.18,1.92-3.39ZM109.13,29.91c0,.47-.38.86-.86.86s-.86-.38-.86-.86c0-.45.37-.86.86-.86s.86.38.86.86ZM108.27,30.33c.24,0,.42-.19.42-.42s-.18-.42-.42-.42c-.22,0-.41.18-.41.42s.19.42.42.42Z"></path><path class="j" d="M112.13,27.44c.42,0,1.18.12,1.18.94,0,.68-.4.98-1.28.98h-.45v1.35h-.58v-3.27h1.12ZM111.96,28.86c.34,0,.74-.04.74-.46,0-.31-.23-.46-.68-.46h-.43v.92h.38Z"></path><path class="j" d="M115.2,28.47v.54c-.11-.03-.18-.04-.27-.04-.42,0-.6.3-.6.59v1.16h-.55v-2.22h.55v.35h0c.12-.25.37-.41.66-.41.08,0,.12.01.2.03Z"></path><path class="j" d="M117.8,29.61c0,.69-.53,1.17-1.21,1.17s-1.21-.47-1.21-1.17.53-1.17,1.21-1.17,1.21.47,1.21,1.17ZM116.59,30.27c.39,0,.65-.3.65-.67s-.28-.67-.66-.67-.65.29-.65.67.28.67.65.67Z"></path><path class="j" d="M120.6,27.22v3.5h-.53v-.33h0c-.17.27-.46.39-.77.39-.68,0-1.09-.5-1.09-1.17,0-.63.42-1.17,1.07-1.17.3,0,.56.1.75.34h.01v-1.56h.55ZM119.41,30.27c.44,0,.65-.36.65-.67,0-.4-.3-.67-.65-.67-.39,0-.65.3-.65.67s.26.67.65.67Z"></path><path class="j" d="M121.79,28.5v1.15c0,.44.14.63.41.63.33,0,.51-.22.51-.56v-1.21h.55v2.22h-.53v-.36h0c-.13.28-.37.41-.68.41-.65,0-.81-.49-.81-.86v-1.42h.55Z"></path><path class="j" d="M125.79,28.78l-.38.38c-.11-.12-.25-.22-.42-.22-.4,0-.65.31-.65.67,0,.38.28.67.65.67.17,0,.33-.07.43-.21l.37.4c-.19.18-.51.31-.8.31-.68,0-1.21-.48-1.21-1.17,0-.65.49-1.17,1.21-1.17.3,0,.6.11.8.34Z"></path><path class="j" d="M126.87,27.85v.64h.61v.47h-.61v.99c0,.24.09.35.31.35.14,0,.25-.03.3-.07v.47c-.11.05-.31.07-.44.07-.52,0-.73-.2-.73-.76v-1.04h-.46v-.47h.46v-.64h.55Z"></path><path class="j" d="M128.56,27.74c0,.2-.16.33-.36.33s-.35-.15-.35-.33.15-.33.35-.33.36.14.36.33ZM128.48,28.5v2.22h-.55v-2.22h.55Z"></path><path class="j" d="M129.43,28.5l.59,1.55h0l.6-1.55h.57l-.87,2.22h-.59l-.91-2.22h.61Z"></path><path class="j" d="M132.17,27.74c0,.2-.16.33-.36.33s-.35-.15-.35-.33.15-.33.35-.33.36.14.36.33ZM132.09,28.5v2.22h-.55v-2.22h.55Z"></path><path class="j" d="M133.48,27.85v.64h.61v.47h-.61v.99c0,.24.09.35.31.35.14,0,.25-.03.3-.07v.47c-.11.05-.31.07-.44.07-.52,0-.73-.2-.73-.76v-1.04h-.46v-.47h.46v-.64h.55Z"></path><path class="j" d="M134.84,28.5l.62,1.54h0l.55-1.54h.58l-1.01,2.6c-.18.46-.33.73-.88.73-.14,0-.29-.02-.43-.06l.07-.5c.09.03.19.06.28.06.29,0,.35-.11.45-.35l.1-.24-.95-2.24h.61Z"></path><path class="j" d="M63.25,32.85l-.43.45c-.13-.18-.35-.26-.57-.26-.33,0-.54.17-.54.42,0,.22.19.34.51.44.52.16,1.05.33,1.05,1s-.53,1.05-1.17,1.05c-.46,0-.84-.14-1.1-.44l.44-.43c.14.22.38.34.65.34.31,0,.57-.19.57-.45,0-.25-.17-.37-.59-.5-.59-.18-.97-.38-.97-.97s.49-.99,1.21-.99c.37,0,.71.12.94.34Z"></path><path class="j" d="M66.13,34.76c0,.69-.53,1.17-1.21,1.17s-1.21-.47-1.21-1.17.53-1.17,1.21-1.17,1.21.47,1.21,1.17ZM64.92,35.43c.39,0,.65-.3.65-.67s-.28-.67-.66-.67-.65.29-.65.67.28.67.65.67Z"></path><path class="j" d="M67.21,32.38v3.5h-.55v-3.5h.55Z"></path><path class="j" d="M68.41,33.65v1.15c0,.44.14.63.41.63.33,0,.51-.22.51-.56v-1.21h.55v2.22h-.53v-.36h0c-.13.28-.37.41-.68.41-.65,0-.81-.49-.81-.86v-1.42h.55Z"></path><path class="j" d="M71.26,33.01v.64h.61v.47h-.61v.99c0,.24.09.35.31.35.14,0,.25-.03.3-.07v.47c-.11.05-.31.07-.44.07-.52,0-.73-.2-.73-.76v-1.04h-.46v-.47h.46v-.64h.55Z"></path><path class="j" d="M72.95,32.9c0,.2-.16.33-.36.33s-.35-.15-.35-.33.15-.33.35-.33.36.14.36.33ZM72.87,33.65v2.22h-.55v-2.22h.55Z"></path><path class="j" d="M75.81,34.76c0,.69-.53,1.17-1.21,1.17s-1.21-.47-1.21-1.17.53-1.17,1.21-1.17,1.21.47,1.21,1.17ZM74.61,35.43c.39,0,.65-.3.65-.67s-.28-.67-.66-.67-.65.29-.65.67.28.67.65.67Z"></path><path class="j" d="M78.36,34.45v1.42h-.55v-1.15c0-.44-.14-.62-.41-.62-.36,0-.51.26-.51.55v1.22h-.55v-2.22h.53v.36h0c.13-.29.39-.41.68-.41.66,0,.81.51.81.86Z"></path><path class="j" d="M80.54,33.94l-.37.33c-.11-.15-.25-.23-.43-.23s-.32.09-.32.24c0,.18.25.21.53.28.34.08.67.2.67.66s-.41.71-.96.71c-.34,0-.63-.09-.86-.34l.37-.35c.19.21.34.27.53.27.2,0,.37-.1.37-.25,0-.21-.27-.25-.55-.31-.3-.07-.65-.18-.65-.63,0-.54.51-.72.89-.72.35,0,.63.12.8.34Z"></path><path class="j" d="M85.31,32.93l-.43.43c-.22-.21-.55-.32-.86-.32-.67,0-1.12.52-1.12,1.17s.43,1.22,1.13,1.22c.25,0,.53-.04.76-.17v-.77h-.67v-.53h1.25v1.67c-.43.23-.89.32-1.35.32-1.02,0-1.73-.69-1.73-1.71s.7-1.73,1.73-1.73c.45,0,.94.1,1.29.41Z"></path><path class="j" d="M87.43,33.63v.54c-.11-.03-.18-.04-.27-.04-.42,0-.6.3-.6.59v1.16h-.55v-2.22h.55v.35h0c.12-.25.37-.41.66-.41.08,0,.12.01.2.03Z"></path><path class="j" d="M89.7,34.55v1.33h-.5v-.31h-.01c-.16.25-.42.36-.71.36-.46,0-.81-.26-.81-.67,0-.51.41-.77,1.36-.77h.17v-.06c0-.26-.2-.41-.51-.41-.23,0-.44.09-.59.23l-.29-.29c.2-.2.51-.36.94-.36.76,0,.95.43.95.95ZM88.61,35.51c.38,0,.56-.21.56-.49v-.14h-.16c-.49,0-.79.11-.79.34,0,.19.19.29.39.29Z"></path><path class="j" d="M92.32,34.45v1.42h-.55v-1.15c0-.44-.14-.62-.41-.62-.36,0-.51.26-.51.55v1.22h-.55v-2.22h.53v.36h0c.13-.29.39-.41.68-.41.66,0,.81.51.81.86Z"></path><path class="j" d="M93.71,33.01v.64h.61v.47h-.61v.99c0,.24.09.35.31.35.14,0,.25-.03.3-.07v.47c-.11.05-.31.07-.44.07-.52,0-.73-.2-.73-.76v-1.04h-.46v-.47h.46v-.64h.55Z"></path><path class="j" d="M97.1,32.75c-.38.54-.59,1.17-.59,1.79s.21,1.28.59,1.8l-.39.25c-.45-.62-.68-1.34-.68-2.05s.23-1.43.68-2.05l.39.24v.02Z"></path><path class="j" d="M98.67,32.6c.42,0,1.18.12,1.18.94,0,.68-.4.98-1.28.98h-.45v1.36h-.58v-3.27h1.12ZM98.51,34.02c.34,0,.74-.04.74-.46,0-.31-.23-.46-.68-.46h-.43v.92h.38Z"></path><path class="j" d="M102.4,32.85l-.43.45c-.13-.18-.35-.26-.57-.26-.33,0-.54.17-.54.42,0,.22.19.34.51.44.52.16,1.05.33,1.05,1s-.53,1.05-1.17,1.05c-.46,0-.84-.14-1.1-.44l.44-.43c.14.22.38.34.65.34.31,0,.57-.19.57-.45,0-.25-.17-.37-.59-.5-.59-.18-.97-.38-.97-.97s.49-.99,1.21-.99c.37,0,.71.12.94.34Z"></path><path class="j" d="M105.87,32.93l-.43.43c-.22-.21-.55-.32-.86-.32-.67,0-1.12.52-1.12,1.17s.43,1.22,1.13,1.22c.25,0,.53-.04.76-.17v-.77h-.67v-.53h1.25v1.67c-.43.23-.89.32-1.35.32-1.02,0-1.73-.69-1.73-1.71s.7-1.73,1.73-1.73c.45,0,.94.1,1.29.41Z"></path><path class="j" d="M106.35,36.34c.41-.57.59-1.22.59-1.79,0-.61-.2-1.24-.59-1.79l.39-.26c.44.62.68,1.34.68,2.05s-.23,1.43-.68,2.05l-.39-.24v-.02Z"></path><path class="j" d="M111.4,32.85l-.43.45c-.13-.18-.35-.26-.57-.26-.33,0-.54.17-.54.42,0,.22.19.34.51.44.52.16,1.05.33,1.05,1s-.53,1.05-1.17,1.05c-.46,0-.84-.14-1.1-.44l.44-.43c.14.22.38.34.65.34.31,0,.57-.19.57-.45,0-.25-.17-.37-.59-.5-.59-.18-.97-.38-.97-.97s.49-.99,1.21-.99c.37,0,.71.12.94.34Z"></path><path class="j" d="M112.53,33.65v1.15c0,.44.14.63.41.63.33,0,.51-.22.51-.56v-1.21h.55v2.22h-.53v-.36h0c-.13.28-.37.41-.68.41-.65,0-.81-.49-.81-.86v-1.42h.55Z"></path><path class="j" d="M117.03,34.76c0,.63-.42,1.17-1.07,1.17-.3,0-.57-.1-.75-.34h-.01v1.34h-.55v-3.27h.53v.33h0c.18-.28.47-.39.77-.39.67,0,1.09.5,1.09,1.17ZM115.82,35.43c.37,0,.65-.28.65-.67,0-.32-.22-.67-.66-.67-.37,0-.65.29-.65.67,0,.4.29.67.65.67Z"></path><path class="j" d="M119.94,34.76c0,.63-.42,1.17-1.07,1.17-.3,0-.57-.1-.75-.34h-.01v1.34h-.55v-3.27h.53v.33h0c.18-.28.47-.39.77-.39.67,0,1.09.5,1.09,1.17ZM118.73,35.43c.37,0,.65-.28.65-.67,0-.32-.22-.67-.66-.67-.37,0-.65.29-.65.67,0,.4.29.67.65.67Z"></path><path class="j" d="M122.76,34.76c0,.69-.53,1.17-1.21,1.17s-1.21-.47-1.21-1.17.53-1.17,1.21-1.17,1.21.47,1.21,1.17ZM121.56,35.43c.39,0,.65-.3.65-.67s-.28-.67-.66-.67-.65.29-.65.67.28.67.65.67Z"></path><path class="j" d="M124.7,33.63v.54c-.11-.03-.18-.04-.27-.04-.42,0-.6.3-.6.59v1.16h-.55v-2.22h.55v.35h0c.12-.25.37-.41.66-.41.08,0,.12.01.2.03Z"></path><path class="j" d="M125.84,33.01v.64h.61v.47h-.61v.99c0,.24.09.35.31.35.14,0,.25-.03.3-.07v.47c-.11.05-.31.07-.44.07-.52,0-.73-.2-.73-.76v-1.04h-.46v-.47h.46v-.64h.55Z"></path><path class="j" d="M62.04,14.47v3.88h-.85v-3.88h.85Z"></path><path class="j" d="M64.11,14.47l.89,2.53h.01l.9-2.53h1.29v3.88h-.85v-2.97h-.01l-1.02,2.97h-.65l-.98-2.97h-.01v2.97h-.85v-3.88h1.29Z"></path><path class="j" d="M69.3,14.47c1.23,0,2.26.55,2.26,1.94,0,1.23-1,1.93-2.16,1.93h-1.42v-3.88h1.31ZM69.31,17.56c.76,0,1.36-.31,1.36-1.18,0-.77-.61-1.12-1.31-1.12h-.53v2.3h.47Z"></path><path class="j" d="M74.13,14.47l1.69,3.88h-.96l-.33-.82h-1.51l-.32.82h-.94l1.68-3.88h.71ZM73.28,16.81h.95l-.48-1.21-.47,1.21Z"></path><path class="j" d="M79.3,14.47c.93,0,1.45.38,1.45,1.18s-.51,1.19-1.41,1.19h-.65v1.51h-.85v-3.88h1.47ZM79.27,16.12c.34,0,.59-.15.59-.47,0-.3-.23-.45-.71-.45h-.46v.92h.59Z"></path><path class="j" d="M83.05,15.65v.75c-.12-.03-.22-.05-.35-.05-.59,0-.7.31-.7.86v1.14h-.82v-2.66h.82v.43h.01c.18-.32.41-.49.77-.49.09,0,.19,0,.27.03Z"></path><path class="j" d="M84.73,15.62c.51,0,1.23.32,1.23,1.42v.23h-1.91c.07.3.28.51.62.51.28,0,.45-.14.59-.32l.58.42c-.26.33-.71.53-1.12.53-.79,0-1.48-.53-1.48-1.4s.65-1.4,1.5-1.4ZM85.14,16.72c0-.3-.22-.5-.51-.5-.31,0-.55.2-.58.5h1.08Z"></path><path class="j" d="M87.65,16.66v.66h-1.35v-.66h1.35Z"></path><path class="j" d="M90.17,14.47l1.69,3.88h-.96l-.33-.82h-1.51l-.32.82h-.94l1.68-3.88h.71ZM89.32,16.81h.95l-.48-1.21-.47,1.21Z"></path><path class="j" d="M95.11,17c0,.68-.42,1.42-1.22,1.42-.29,0-.64-.07-.84-.35h-.01v1.53h-.82v-3.91h.76v.35h.01c.18-.25.5-.42.82-.42.8,0,1.31.58,1.31,1.37ZM93.63,17.69c.4,0,.66-.26.66-.67s-.26-.67-.66-.67-.65.28-.65.67.25.67.66.67Z"></path><path class="j" d="M98.56,17c0,.68-.42,1.42-1.22,1.42-.29,0-.64-.07-.84-.35h-.01v1.53h-.82v-3.91h.76v.35h.01c.18-.25.5-.42.82-.42.8,0,1.31.58,1.31,1.37ZM97.08,17.69c.4,0,.66-.26.66-.67s-.26-.67-.66-.67-.65.28-.65.67.25.67.66.67Z"></path><path class="j" d="M100.92,15.65v.75c-.12-.03-.22-.05-.35-.05-.59,0-.7.31-.7.86v1.14h-.82v-2.66h.82v.43h.01c.18-.32.41-.49.77-.49.09,0,.19,0,.27.03Z"></path><path class="j" d="M104.04,17.02c0,.84-.66,1.4-1.48,1.4s-1.48-.54-1.48-1.4.66-1.4,1.48-1.4,1.48.55,1.48,1.4ZM102.56,17.69c.4,0,.66-.26.66-.67s-.26-.67-.66-.67-.65.28-.65.67.25.67.66.67Z"></path><path class="j" d="M105.13,15.69l.67,1.81h.01l.62-1.81h.83l-1.05,2.66h-.87l-1.1-2.66h.89Z"></path><path class="j" d="M108.98,15.62c.51,0,1.23.32,1.23,1.42v.23h-1.91c.07.3.28.51.62.51.28,0,.45-.14.59-.32l.58.42c-.26.33-.71.53-1.12.53-.79,0-1.48-.53-1.48-1.4s.65-1.4,1.5-1.4ZM109.39,16.72c0-.3-.22-.5-.51-.5-.31,0-.55.2-.58.5h1.08Z"></path><path class="j" d="M113.51,14.21v4.14h-.76v-.35h-.01c-.18.26-.51.42-.82.42-.8,0-1.3-.58-1.3-1.37,0-.71.44-1.42,1.22-1.42.32,0,.65.08.84.35h.01v-1.76h.82ZM112.09,17.69c.4,0,.66-.26.66-.67,0-.43-.27-.67-.66-.67s-.65.26-.65.67.25.67.66.67Z"></path><path class="j" d="M118.39,14.78l-.59.64c-.14-.18-.41-.26-.62-.26-.24,0-.58.11-.58.4,0,.34.41.41.84.54.47.14.95.37.95,1.07,0,.88-.71,1.28-1.5,1.28-.5,0-.94-.14-1.3-.49l.61-.67c.18.23.45.37.75.37.24,0,.59-.1.59-.41,0-.34-.41-.43-.84-.57-.48-.15-.97-.37-.97-1.05,0-.83.72-1.26,1.48-1.26.43,0,.85.11,1.19.41Z"></path><path class="j" d="M121.79,17.02c0,.84-.66,1.4-1.48,1.4s-1.48-.54-1.48-1.4.66-1.4,1.48-1.4,1.48.55,1.48,1.4ZM120.31,17.69c.4,0,.66-.26.66-.67s-.26-.67-.66-.67-.65.28-.65.67.25.67.66.67Z"></path><path class="j" d="M123.11,14.21v4.14h-.82v-4.14h.82Z"></path><path class="j" d="M124.52,15.69v1.32c0,.27,0,.68.43.68.34,0,.49-.21.49-.66v-1.35h.82v2.66h-.79v-.36h-.01c-.15.27-.44.43-.78.43-.7,0-.98-.38-.98-1.23v-1.5h.82Z"></path><path class="j" d="M127.93,14.9v.79h.72v.66h-.72v.94c0,.33.12.44.39.44.16,0,.29-.03.33-.08v.68c-.19.07-.39.08-.58.08-.64,0-.97-.31-.97-.78v-1.29h-.53v-.66h.53v-.79h.82Z"></path><path class="j" d="M129.97,14.85c0,.26-.21.48-.48.48s-.48-.22-.48-.48c0-.27.22-.48.48-.48s.48.22.48.48ZM129.91,15.69v2.66h-.82v-2.66h.82Z"></path><path class="j" d="M133.36,17.02c0,.84-.66,1.4-1.48,1.4s-1.48-.54-1.48-1.4.66-1.4,1.48-1.4,1.48.55,1.48,1.4ZM131.88,17.69c.4,0,.66-.26.66-.67s-.26-.67-.66-.67-.65.28-.65.67.25.67.66.67Z"></path><path class="j" d="M136.41,16.84v1.51h-.82v-1.37c0-.47-.14-.64-.43-.64-.33,0-.49.2-.49.65v1.35h-.82v-2.66h.79v.36h.01c.15-.27.44-.43.78-.43.67,0,.99.35.99,1.22Z"></path><path class="j" d="M140.71,21.03c-.73,0-1.36.49-1.55,1.16H59.13c-.2-.67-.82-1.16-1.55-1.16-.89,0-1.62.73-1.62,1.62s.73,1.62,1.62,1.62c.73,0,1.36-.49,1.55-1.16h80.03c.2.67.82,1.16,1.55,1.16.89,0,1.62-.73,1.62-1.62s-.73-1.62-1.62-1.62ZM140.71,23.49c-.29,0-.54-.15-.69-.37-.09-.13-.14-.29-.14-.46s.05-.33.14-.46c.15-.22.4-.37.69-.37.46,0,.83.37.83.83s-.37.83-.83.83ZM58.41,22.65c0,.17-.05.33-.14.46-.15.22-.4.37-.69.37-.46,0-.83-.37-.83-.83s.37-.83.83-.83c.29,0,.54.15.69.37.09.13.14.29.14.46Z"></path><path class="j" d="M50.41,31.23V13.5c0-.14-.01-.28-.03-.42-.11-1.03-.7-1.91-1.58-2.35-.39-.21-.84-.33-1.31-.33h-28.61c-.5,0-.96.13-1.35.37-.88.5-1.45,1.49-1.54,2.77-.01.12-.02.24-.03.37,0,.03,0,.06,0,.08,0,.02,0,.04,0,.07v17.18h-2.9v2.56c0,1.31,1.06,2.37,2.37,2.37h35.5c1.31,0,2.37-1.06,2.37-2.37v-2.56h-2.9ZM48.38,31.23h-10.65l-1.02.88h-7.47l-.82.82c-.4.4-.94.62-1.5.62s-1.1-.22-1.51-.62l-1.7-1.7h-5.7v-15.98h19.51l1.73-1.71c.4-.4.94-.62,1.5-.62s1.12.23,1.53.64c.46.46.66,1.08.61,1.69h5.5v15.98Z"></path><path class="l" d="M39.87,14.19l-7.92,7.82-2.61-3.96c-.38-.57-1.15-.73-1.72-.35-.57.38-.73,1.15-.36,1.72l2.25,3.42c.36.02.7.07,1.04.17h3.93l7.14-7.04c.2-.2.32-.45.36-.7.06-.37-.06-.77-.35-1.06-.48-.49-1.27-.5-1.76-.01Z"></path><path class="o" d="M39.87,14.19l-7.92,7.82-2.61-3.96c-.38-.57-1.15-.73-1.72-.35-.57.38-.73,1.15-.36,1.72l2.25,3.42c.36.02.7.07,1.04.17h3.93l7.14-7.04c.2-.2.32-.45.36-.7.06-.37-.06-.77-.35-1.06-.48-.49-1.27-.5-1.76-.01Z"></path><path class="l" d="M29.45,29.29s.1-.01.15-.02l5.46-.61c.32-.03.72-.12,1.02-.45l4.3-4.72c.45-.49.45-1.23,0-1.68-.46-.46-1.21-.46-1.68,0l-2.24,2.2c.12.26.18.55.18.88,0,0,0,.01,0,.03,0,1.06-.87,1.93-1.93,1.93h-3.09v-.91h3.09c.56,0,1.02-.46,1.02-1.02h0s0-.01,0-.03c0-.87-.64-.99-1.02-.99h-4.31l-.07-.02c-.05-.02-.1-.03-.16-.04-.83-.22-1.79-.11-2.67.3-.71.33-1.31.84-1.73,1.44l3.48,3.48c.07.07.13.14.18.23Z"></path><path class="j" d="M29.51,22.83c-.79-.04-1.62.13-2.38.5-.84.4-1.56,1-2.07,1.73.15.04.28.12.4.22.03.03.07.06.1.09l.23.23c.42-.6,1.02-1.11,1.73-1.44.88-.41,1.84-.52,2.67-.3.05.01.1.03.16.04l.07.02h4.31c.38,0,1.02.13,1.02.99,0,.01,0,.03,0,.03h0c0,.56-.46,1.02-1.02,1.02h-3.09v.91h3.09c1.06,0,1.93-.87,1.93-1.93,0-.01,0-.03,0-.03,0-.33-.06-.63-.18-.88l2.24-2.2c.46-.46,1.22-.46,1.68,0,.45.45.45,1.18,0,1.68l-4.3,4.72c-.31.33-.71.42-1.02.45,0,0-5.56.62-5.61.63.08.13.14.28.16.44.01.07.02.14.02.21,0,.09,0,.17-.03.25.03,0,.05,0,.08,0l5.47-.61c.25-.03,1.02-.11,1.6-.74l4.3-4.72c.78-.85.76-2.14-.03-2.94-.81-.81-2.14-.81-2.96,0l-2.19,2.16c-.31-.21-.71-.33-1.16-.33h-4.17c-.33-.1-.68-.16-1.04-.17Z"></path><path class="j" d="M27.14,31.66l1.49-1.49c.06-.06.09-.14.09-.23s-.03-.17-.09-.23l-3.71-3.71c-.06-.06-.14-.09-.23-.09s-.17.03-.23.09l-1.49,1.49c-.06.06-.09.14-.09.23s.03.17.09.23l3.71,3.71c.12.12.33.12.45,0Z"></path><path class="j" d="M29.61,29.73c-.03-.16-.08-.31-.16-.44-.05-.08-.11-.16-.18-.23l-3.71-3.71s-.06-.06-.1-.09c-.12-.1-.26-.17-.4-.22-.12-.04-.24-.06-.37-.06-.33,0-.64.13-.87.36l-1.49,1.49c-.23.23-.36.54-.36.87s.13.64.36.87l3.71,3.71c.23.23.54.36.87.36s.64-.13.87-.36l1.49-1.49c.17-.17.29-.39.33-.62.02-.08.03-.17.03-.25,0-.07,0-.14-.02-.21ZM22.97,27.95c-.06-.06-.09-.14-.09-.23s.03-.17.09-.23l1.49-1.49c.06-.06.14-.09.23-.09s.17.03.23.09l3.71,3.71c.06.06.09.14.09.23s-.03.17-.09.23l-1.49,1.49c-.12.12-.33.12-.45,0l-3.71-3.71Z"></path><rect class="l" x="167.16" y="21.95" width="87.06" height="14.32" rx="4.53" ry="4.53"></rect><path class="l" d="M171.32,11.82v1.03h-1.48v4.27h-1.14v-4.27h-1.48v-1.03h4.1Z"></path><path class="l" d="M174.27,15.22v1.9h-1.01v-.46h-.01c-.24.39-.69.55-1.13.55-.66,0-1.27-.39-1.27-1.12,0-1.27,1.54-1.28,2.41-1.28,0-.41-.34-.65-.7-.65s-.66.16-.89.43l-.59-.61c.41-.4,1.01-.58,1.57-.58,1.23,0,1.63.62,1.63,1.83ZM172.43,16.45c.42,0,.83-.22.83-.69v-.23h-.33c-.33,0-1.03.05-1.03.52,0,.28.29.4.53.4Z"></path><path class="l" d="M176.06,11.46v3.46l1.22-1.44h1.35l-1.41,1.64,1.45,2h-1.38l-1.2-1.84h-.01v1.84h-1.1v-5.66h1.1Z"></path><path class="l" d="M180.93,13.39c.69,0,1.64.43,1.64,1.95v.31h-2.55c.09.41.38.7.83.7.37,0,.6-.19.78-.44l.77.58c-.34.46-.95.72-1.5.72-1.06,0-1.98-.72-1.98-1.91s.86-1.91,2.01-1.91ZM181.48,14.89c0-.41-.3-.69-.68-.69-.41,0-.73.27-.77.69h1.45Z"></path><path class="l" d="M186.87,12.4v1.08h.97v.9h-.97v1.28c0,.45.15.61.52.61.21,0,.39-.04.45-.1v.94c-.26.09-.52.11-.77.11-.86,0-1.3-.42-1.3-1.07v-1.76h-.7v-.9h.7v-1.08h1.1Z"></path><path class="l" d="M189.5,11.46v2.52h.01c.13-.35.54-.58,1-.58.95,0,1.32.54,1.32,1.69v2.04h-1.1v-1.85c0-.68-.2-.89-.57-.89-.44,0-.66.27-.66.89v1.85h-1.1v-5.66h1.1Z"></path><path class="l" d="M194.5,13.39c.69,0,1.64.43,1.64,1.95v.31h-2.55c.09.41.38.7.83.7.37,0,.6-.19.78-.44l.77.58c-.34.46-.95.72-1.5.72-1.06,0-1.98-.72-1.98-1.91s.86-1.91,2.01-1.91ZM195.04,14.89c0-.41-.3-.69-.68-.69-.41,0-.73.27-.77.69h1.45Z"></path><path class="j" d="M174.69,26.81c1.42,0,2.62.66,2.62,2.3,0,1.46-1.16,2.29-2.5,2.29h-1.65v-4.6h1.53ZM174.7,30.47c.88,0,1.58-.37,1.58-1.4,0-.92-.71-1.33-1.52-1.33h-.61v2.73h.55Z"></path><path class="j" d="M178.96,26.81v4.6h-.99v-4.6h.99Z"></path><path class="j" d="M183.84,27.29l-.7.78c-.3-.32-.66-.43-1.09-.43-.84,0-1.4.62-1.4,1.48s.56,1.48,1.4,1.48c.32,0,.64-.07.93-.23v-.75h-.81v-.93h1.76v2.4c-.58.32-1.23.44-1.88.44-1.42,0-2.43-.93-2.43-2.41s1.02-2.41,2.43-2.41c.66,0,1.3.14,1.79.59Z"></path><path class="j" d="M185.78,26.81v4.6h-.99v-4.6h.99Z"></path><path class="j" d="M189.83,26.81v.9h-1.28v3.7h-.99v-3.7h-1.28v-.9h3.56Z"></path><path class="j" d="M192.05,26.81l1.96,4.6h-1.12l-.39-.97h-1.75l-.37.97h-1.09l1.94-4.6h.82ZM191.06,29.58h1.1l-.55-1.43-.55,1.43Z"></path><path class="j" d="M195.48,26.81v3.66h1.84v.93h-2.83v-4.6h.99Z"></path><path class="j" d="M200.74,26.81v1.71h1.93v-1.71h.99v4.6h-.99v-1.99h-1.93v1.99h-.99v-4.6h.99Z"></path><path class="j" d="M207.66,26.81v.93h-2.06v.86h1.95v.93h-1.95v.93h2.18v.93h-3.17v-4.6h3.06Z"></path><path class="j" d="M210.87,26.81l1.96,4.6h-1.12l-.39-.97h-1.75l-.37.97h-1.09l1.94-4.6h.82ZM209.88,29.58h1.1l-.55-1.43-.55,1.43Z"></path><path class="j" d="M214.31,26.81v3.66h1.84v.93h-2.83v-4.6h.99Z"></path><path class="j" d="M219.25,26.81v.9h-1.28v3.7h-.99v-3.7h-1.28v-.9h3.56Z"></path><path class="j" d="M220.74,26.81v1.71h1.93v-1.71h.99v4.6h-.99v-1.99h-1.93v1.99h-.99v-4.6h.99Z"></path><path class="j" d="M230.16,27.37l-.76.64c-.22-.27-.51-.38-.85-.38-.71,0-1.3.58-1.3,1.48,0,.77.48,1.48,1.27,1.48.39,0,.71-.16.93-.49l.83.63c-.36.53-1.01.8-1.63.8-1.41,0-2.43-.95-2.43-2.41s1.01-2.41,2.43-2.41c.59,0,1.18.23,1.52.68Z"></path><path class="j" d="M231.79,26.81v1.71h1.93v-1.71h.99v4.6h-.99v-1.99h-1.93v1.99h-.99v-4.6h.99Z"></path><path class="j" d="M238.72,26.81v.93h-2.06v.86h1.95v.93h-1.95v.93h2.18v.93h-3.17v-4.6h3.06Z"></path><path class="j" d="M243.33,27.37l-.76.64c-.22-.27-.51-.38-.85-.38-.71,0-1.3.58-1.3,1.48,0,.77.48,1.48,1.27,1.48.39,0,.71-.16.93-.49l.83.63c-.36.53-1.01.8-1.63.8-1.41,0-2.43-.95-2.43-2.41s1.01-2.41,2.43-2.41c.59,0,1.18.23,1.52.68Z"></path><path class="j" d="M245.01,26.81v1.91l1.75-1.91h1.3l-2,2.14,2.17,2.46h-1.39l-1.83-2.18v2.18h-.99v-4.6h.99Z"></path><path class="l" d="M169.37,41.76v1.2h1.08v1h-1.08v1.42c0,.5.17.67.58.67.24,0,.43-.05.5-.12v1.04c-.29.1-.58.12-.86.12-.96,0-1.45-.47-1.45-1.19v-1.95h-.78v-1h.78v-1.2h1.23Z"></path><path class="l" d="M175.34,44.97c0,1.28-.99,2.12-2.21,2.12s-2.21-.82-2.21-2.12.98-2.12,2.21-2.12,2.21.83,2.21,2.12ZM173.13,46c.6,0,.98-.4.98-1.02s-.38-1.02-.99-1.02-.97.42-.97,1.02.38,1.02.98,1.02Z"></path><path class="l" d="M183.75,41.72l-.9,1c-.38-.42-.85-.56-1.4-.56-1.09,0-1.81.79-1.81,1.9s.72,1.9,1.81,1.9c.42,0,.83-.09,1.19-.29v-.96h-1.04v-1.2h2.26v3.08c-.75.41-1.58.57-2.42.57-1.82,0-3.13-1.2-3.13-3.09s1.31-3.09,3.13-3.09c.85,0,1.67.17,2.3.76Z"></path><path class="l" d="M187.63,42.9v1.14c-.18-.05-.33-.08-.52-.08-.87,0-1.05.47-1.05,1.3v1.74h-1.23v-4.04h1.23v.65h.02c.26-.49.61-.75,1.15-.75.13,0,.29,0,.4.04Z"></path><path class="l" d="M192.28,44.97c0,1.28-.99,2.12-2.21,2.12s-2.21-.82-2.21-2.12.98-2.12,2.21-2.12,2.21.83,2.21,2.12ZM190.08,46c.6,0,.98-.4.98-1.02s-.38-1.02-.99-1.02-.97.42-.97,1.02.38,1.02.98,1.02Z"></path><path class="l" d="M193.84,42.95l.81,2.54h.02l.68-2.54h1.34l.74,2.54h.02l.74-2.54h1.24l-1.41,4.04h-1.21l-.83-2.68h-.02l-.74,2.68h-1.23l-1.45-4.04h1.31Z"></path><path class="l" d="M203.15,42.95l1.02,2.67h.02l.87-2.67h1.26l-1.78,4.65c-.34.9-.51,1.38-1.7,1.38-.31,0-.62-.05-.92-.15l.16-1.02c.19.08.37.12.57.12.65,0,.7-.38.91-.91l-1.74-4.07h1.32Z"></path><path class="l" d="M211.04,44.97c0,1.28-.99,2.12-2.21,2.12s-2.21-.82-2.21-2.12.98-2.12,2.21-2.12,2.21.83,2.21,2.12ZM208.84,46c.6,0,.98-.4.98-1.02s-.38-1.02-.99-1.02-.97.42-.97,1.02.38,1.02.98,1.02Z"></path><path class="l" d="M212.99,42.95v2c0,.41,0,1.04.64,1.04.51,0,.74-.32.74-1v-2.04h1.23v4.04h-1.18v-.55h-.02c-.22.41-.65.65-1.17.65-1.04,0-1.46-.57-1.46-1.86v-2.28h1.23Z"></path><path class="l" d="M219.25,42.9v1.14c-.18-.05-.33-.08-.52-.08-.87,0-1.05.47-1.05,1.3v1.74h-1.23v-4.04h1.23v.65h.02c.26-.49.61-.75,1.15-.75.13,0,.29,0,.4.04Z"></path><path class="l" d="M224.57,41.11c1.02,0,2.07.26,2.07,1.5,0,.66-.4,1.11-1,1.3v.02c.68.08,1.27.6,1.27,1.44,0,1.23-1.14,1.64-2.17,1.64h-2.38v-5.88h2.21ZM224.58,43.46c.39,0,.78-.19.78-.64,0-.47-.44-.62-.83-.62h-.89v1.26h.95ZM224.8,45.9c.42,0,.83-.22.83-.69,0-.54-.58-.65-1-.65h-1v1.34h1.17Z"></path><path class="l" d="M228.73,42.95v2c0,.41,0,1.04.64,1.04.51,0,.74-.32.74-1v-2.04h1.23v4.04h-1.18v-.55h-.02c-.22.41-.65.65-1.17.65-1.04,0-1.46-.57-1.46-1.86v-2.28h1.23Z"></path><path class="l" d="M235.19,43.39l-.75.76c-.19-.23-.43-.34-.7-.34s-.46.13-.46.33.2.28.74.39c.98.19,1.33.58,1.33,1.24,0,.91-.78,1.33-1.83,1.33-.67,0-1.22-.19-1.56-.55l.74-.84c.24.28.5.44.87.44s.56-.11.56-.29c0-.22-.25-.32-.63-.39-.68-.14-1.44-.32-1.44-1.25,0-.86.71-1.36,1.67-1.36.65,0,1.15.19,1.47.53Z"></path><path class="l" d="M237.32,41.68c0,.39-.31.72-.71.72s-.71-.33-.71-.72c0-.42.33-.72.71-.72s.71.33.71.72ZM237.22,42.95v4.04h-1.23v-4.04h1.23Z"></path><path class="l" d="M241.93,44.71v2.29h-1.23v-2.08c0-.71-.21-.96-.64-.96-.49,0-.74.3-.74.99v2.05h-1.23v-4.04h1.18v.55h.02c.22-.41.65-.65,1.16-.65,1.01,0,1.47.52,1.47,1.85Z"></path><path class="l" d="M244.91,42.85c.77,0,1.83.48,1.83,2.16v.35h-2.84c.1.46.43.78.92.78.42,0,.67-.22.87-.49l.86.64c-.38.51-1.05.8-1.68.8-1.19,0-2.21-.8-2.21-2.12s.96-2.12,2.24-2.12ZM245.52,44.52c0-.46-.34-.76-.76-.76-.46,0-.82.3-.86.76h1.62Z"></path><path class="l" d="M250.49,43.39l-.75.76c-.19-.23-.43-.34-.7-.34s-.46.13-.46.33.2.28.74.39c.98.19,1.33.58,1.33,1.24,0,.91-.78,1.33-1.83,1.33-.67,0-1.22-.19-1.56-.55l.74-.84c.24.28.5.44.87.44s.56-.11.56-.29c0-.22-.25-.32-.63-.39-.68-.14-1.44-.32-1.44-1.25,0-.86.71-1.36,1.67-1.36.65,0,1.15.19,1.47.53Z"></path><path class="l" d="M254.27,43.39l-.75.76c-.19-.23-.43-.34-.7-.34s-.46.13-.46.33.2.28.74.39c.98.19,1.33.58,1.33,1.24,0,.91-.78,1.33-1.83,1.33-.67,0-1.22-.19-1.56-.55l.74-.84c.24.28.5.44.87.44s.56-.11.56-.29c0-.22-.25-.32-.63-.39-.68-.14-1.44-.32-1.44-1.25,0-.86.71-1.36,1.67-1.36.65,0,1.15.19,1.47.53Z"></path><path class="l" d="M168.39,53.86l.84,2.83h.02l.88-2.83h.74l.94,2.83h.02l.8-2.83h.74l-1.2,3.79h-.71l-.98-2.83h-.02l-.88,2.83h-.76l-1.22-3.79h.79Z"></path><path class="l" d="M174.32,53.86l.84,2.83h.02l.88-2.83h.74l.94,2.83h.02l.8-2.83h.74l-1.2,3.79h-.71l-.98-2.83h-.02l-.88,2.83h-.76l-1.22-3.79h.79Z"></path><path class="l" d="M180.26,53.86l.84,2.83h.02l.88-2.83h.74l.94,2.83h.02l.8-2.83h.74l-1.2,3.79h-.71l-.98-2.83h-.02l-.88,2.83h-.76l-1.22-3.79h.79Z"></path><path class="l" d="M186.49,57.17c0,.3-.25.53-.52.53s-.52-.23-.52-.53.24-.53.52-.53c.29,0,.52.25.52.53Z"></path><path class="l" d="M190.58,54.4h.02v-.54h.7v3.79c0,1.01-.73,1.92-2.02,1.92-.7,0-1.3-.18-1.81-.68l.48-.61c.37.4.77.62,1.33.62.88,0,1.33-.5,1.33-1.29v-.58h-.02c-.25.44-.75.67-1.28.67-1.04,0-1.88-.78-1.88-1.93,0-1.21.8-2.01,1.88-2.01.52,0,1.02.24,1.29.64ZM189.38,57.02c.74,0,1.22-.5,1.22-1.27s-.5-1.32-1.23-1.32-1.21.54-1.21,1.32.46,1.27,1.22,1.27Z"></path><path class="l" d="M196.13,55.75c0,1.1-.87,1.99-1.97,1.99s-1.97-.86-1.97-1.99.87-1.99,1.97-1.99,1.97.83,1.97,1.99ZM194.16,57.07c.73,0,1.22-.54,1.22-1.32s-.5-1.32-1.23-1.32-1.21.54-1.21,1.32.49,1.32,1.22,1.32Z"></path><path class="l" d="M198.08,57.17c0,.3-.25.53-.52.53s-.52-.23-.52-.53.24-.53.52-.53c.29,0,.52.25.52.53Z"></path><path class="l" d="M202.18,54.4h.02v-.54h.7v3.79c0,1.01-.73,1.92-2.02,1.92-.7,0-1.3-.18-1.81-.68l.48-.61c.37.4.77.62,1.33.62.88,0,1.33-.5,1.33-1.29v-.58h-.02c-.25.44-.75.67-1.28.67-1.04,0-1.88-.78-1.88-1.93,0-1.21.8-2.01,1.88-2.01.52,0,1.02.24,1.29.64ZM200.98,57.02c.74,0,1.22-.5,1.22-1.27s-.5-1.32-1.23-1.32-1.21.54-1.21,1.32.46,1.27,1.22,1.27Z"></path><path class="l" d="M207.72,55.75c0,1.1-.87,1.99-1.97,1.99s-1.97-.86-1.97-1.99.87-1.99,1.97-1.99,1.97.83,1.97,1.99ZM205.75,57.07c.73,0,1.22-.54,1.22-1.32s-.5-1.32-1.23-1.32-1.21.54-1.21,1.32.49,1.32,1.22,1.32Z"></path><path class="l" d="M208.97,53.86l1.11,2.9,1.06-2.9h.75l-1.45,3.79h-.77l-1.51-3.79h.81Z"></path><path class="l" d="M213.01,57.17c0,.3-.25.53-.52.53s-.52-.23-.52-.53.24-.53.52-.53c.29,0,.52.25.52.53Z"></path><path class="l" d="M216.63,54.39l-.55.42c-.17-.21-.41-.38-.76-.38s-.62.18-.62.42c0,.31.3.46.73.54.88.18,1.3.46,1.3,1.15,0,.83-.73,1.19-1.51,1.19-.68,0-1.1-.22-1.42-.67l.53-.45c.32.34.59.45.9.45.39,0,.75-.17.75-.48,0-.29-.26-.44-.7-.54-.87-.18-1.32-.43-1.32-1.12,0-.78.7-1.17,1.41-1.17.56,0,1.03.22,1.27.62Z"></path><path class="l" d="M220.58,54.4h.02v-.54h.7v3.79c0,1.01-.73,1.92-2.02,1.92-.7,0-1.3-.18-1.81-.68l.48-.61c.37.4.77.62,1.33.62.88,0,1.33-.5,1.33-1.29v-.58h-.02c-.25.44-.75.67-1.28.67-1.04,0-1.88-.78-1.88-1.93,0-1.21.8-2.01,1.88-2.01.52,0,1.02.24,1.29.64ZM219.37,57.02c.74,0,1.22-.5,1.22-1.27s-.5-1.32-1.23-1.32-1.21.54-1.21,1.32.46,1.27,1.22,1.27Z"></path><path class="l" d="M224.33,51.64l.54.21-2.49,6.15-.55-.21,2.5-6.15Z"></path><path class="l" d="M230.06,52.72l-.63.49c-.33-.42-.82-.65-1.34-.65-1.24,0-2.06,1.01-2.06,2.3,0,1.21.81,2.21,2.06,2.21.64,0,1.11-.28,1.45-.76l.63.49c-.43.59-1.2.99-2.09.99-1.78,0-2.85-1.53-2.85-2.93,0-1.71,1.14-3.01,2.88-3.01.78,0,1.51.31,1.94.88Z"></path><path class="l" d="M234.77,51.99v.72h-1.78v4.94h-.75v-4.94h-1.78v-.72h4.32Z"></path><path class="l" d="M241,54.82c0,1.66-1.19,2.97-2.88,2.97s-2.88-1.24-2.88-2.97,1.23-2.97,2.88-2.97,2.88,1.21,2.88,2.97ZM238.11,57.07c1.21,0,2.09-.97,2.09-2.25s-.82-2.25-2.09-2.25c-1.2,0-2.08.97-2.08,2.25s.81,2.25,2.09,2.25Z"></path><path class="l" d="M244.93,55v2.03c0,.11,0,.42.03.62h-.63c-.02-.19-.02-.35-.02-.58h-.02c-.32.49-.73.67-1.3.67-.74,0-1.28-.43-1.28-1.13,0-.76.58-1.31,2.03-1.31h.52v-.14c0-.51-.37-.82-.89-.82-.4,0-.64.1-1.05.43l-.42-.45c.39-.37.94-.56,1.47-.56,1.12,0,1.55.65,1.55,1.24ZM243.22,57.17c.63,0,1.06-.4,1.06-1.13v-.21h-.4c-1.14,0-1.45.36-1.45.73,0,.39.26.62.8.62Z"></path><path class="l" d="M248.99,55v2.03c0,.11,0,.42.03.62h-.63c-.02-.19-.02-.35-.02-.58h-.02c-.32.49-.73.67-1.3.67-.74,0-1.28-.43-1.28-1.13,0-.76.58-1.31,2.03-1.31h.52v-.14c0-.51-.37-.82-.89-.82-.4,0-.64.1-1.05.43l-.42-.45c.39-.37.94-.56,1.47-.56,1.12,0,1.55.65,1.55,1.24ZM247.28,57.17c.63,0,1.06-.4,1.06-1.13v-.21h-.4c-1.14,0-1.45.36-1.45.73,0,.39.26.62.8.62Z"></path><path class="l" d="M253.37,52.49l-.61.57c-.19-.3-.55-.5-.99-.5-.85,0-1.07.54-1.07.87,0,.48.32.74.83.9l.7.23c.77.26,1.2.68,1.2,1.48,0,1.05-.81,1.75-1.92,1.75-.78,0-1.41-.29-1.77-.78l.62-.54c.24.38.69.61,1.17.61.55,0,1.1-.36,1.1-.94,0-.39-.23-.64-.9-.86l-.49-.17c-.76-.25-1.34-.66-1.34-1.67,0-.75.63-1.59,1.88-1.59.79,0,1.27.24,1.59.65Z"></path><path class="l" d="M204.55,12.39c-.16-.19-.35-.34-.58-.44-.23-.1-.5-.15-.8-.15s-.58.06-.84.18c-.26.12-.48.28-.67.49-.19.21-.34.46-.44.75-.11.29-.16.6-.16.94s.05.66.16.95.25.53.44.74c.19.21.4.37.66.49.25.12.52.18.81.18.33,0,.62-.07.88-.21s.46-.33.63-.58l1.34,1c-.31.43-.7.75-1.18.96s-.96.31-1.47.31c-.57,0-1.1-.09-1.58-.27s-.9-.44-1.25-.77c-.35-.33-.62-.74-.82-1.21-.2-.48-.29-1.01-.29-1.59s.1-1.12.29-1.59.47-.88.82-1.21c.35-.33.77-.59,1.25-.77s1.01-.27,1.58-.27c.21,0,.42.02.65.06s.44.1.66.18c.22.08.43.19.62.33.2.14.38.31.54.51l-1.24,1.01Z"></path><polygon class="l" points="208.18 12.1 206.1 12.1 206.1 10.67 211.88 10.67 211.88 12.1 209.79 12.1 209.79 17.98 208.18 17.98 208.18 12.1"></polygon><path class="l" d="M211.76,14.14c0-.59.1-1.12.29-1.59.2-.48.47-.88.82-1.21.35-.33.77-.59,1.25-.77s1.01-.27,1.58-.27,1.1.09,1.58.27c.48.18.9.44,1.25.77.35.33.62.74.82,1.21s.29,1.01.29,1.59-.1,1.12-.29,1.59-.47.88-.82,1.21-.77.59-1.25.77c-.48.18-1.01.27-1.58.27s-1.1-.09-1.58-.27-.9-.44-1.25-.77c-.35-.33-.62-.74-.82-1.21-.2-.48-.29-1.01-.29-1.59ZM213.43,14.14c0,.34.05.66.16.95s.26.53.46.74c.2.21.44.37.72.49s.59.18.93.18.66-.06.93-.18.52-.28.72-.49c.2-.21.35-.46.46-.74s.16-.6.16-.95-.05-.65-.16-.94c-.11-.29-.26-.54-.46-.75-.2-.21-.44-.37-.72-.49-.28-.12-.59-.18-.93-.18s-.66.06-.93.18c-.28.12-.52.28-.72.49-.2.21-.35.46-.46.75-.11.29-.16.6-.16.94Z"></path><path class="l" d="M225.22,15.23h0c-.08.12-.18.21-.31.27s-.27.08-.41.08c-.11,0-.21-.02-.31-.04-.1-.03-.19-.08-.26-.13-.08-.06-.14-.13-.18-.22-.04-.09-.07-.19-.07-.31,0-.13.02-.24.07-.34.05-.09.12-.17.2-.23.08-.06.18-.11.29-.14.11-.03.22-.06.33-.07.12-.02.23-.03.35-.03.12,0,.22,0,.32,0,0-.13-.04-.23-.13-.3-.09-.07-.2-.11-.32-.11-.12,0-.22.02-.32.07-.1.05-.18.12-.26.2l-.38-.39c.13-.12.29-.22.46-.28.18-.06.36-.09.55-.09.21,0,.38.03.51.08s.24.13.32.23.14.22.17.37.05.32.05.51v1.17h-.65v-.29ZM225.04,14.51c-.05,0-.12,0-.2,0-.08,0-.16.02-.23.04-.07.02-.14.06-.19.1s-.08.11-.08.18c0,.09.04.15.11.19.07.04.15.06.23.06.07,0,.14,0,.2-.03s.12-.05.17-.08c.05-.03.09-.08.12-.13.03-.05.04-.12.04-.19v-.15h-.18Z"></path><path class="l" d="M227.62,13.89c-.1-.13-.24-.19-.41-.19-.06,0-.12.01-.18.04-.06.03-.09.08-.09.15,0,.06.03.1.09.13s.13.05.22.07l.29.07c.1.02.2.06.29.11.09.05.16.12.22.21.06.09.09.2.09.35s-.03.27-.1.37c-.06.1-.15.17-.25.23-.1.06-.21.1-.34.12-.13.02-.25.04-.37.04-.16,0-.32-.02-.49-.07-.16-.05-.3-.13-.42-.24l.43-.48c.07.08.14.14.22.19s.17.06.28.06c.08,0,.16-.01.22-.04.07-.02.1-.07.1-.13,0-.06-.03-.1-.09-.13s-.13-.06-.22-.08c-.09-.02-.19-.04-.29-.07-.1-.02-.2-.06-.29-.11-.09-.05-.16-.11-.22-.2-.06-.09-.09-.2-.09-.35,0-.14.03-.25.08-.35.06-.1.13-.18.22-.24s.19-.11.31-.14.23-.04.35-.04c.15,0,.3.02.46.07.15.04.29.12.39.24l-.44.43Z"></path><rect class="l" x="228.37" y="14.05" width="1.16" height=".57"></rect><path class="l" d="M231.35,15.23h0c-.08.12-.18.21-.31.27s-.27.08-.41.08c-.11,0-.21-.02-.31-.04-.1-.03-.19-.08-.26-.13-.08-.06-.14-.13-.18-.22-.04-.09-.07-.19-.07-.31,0-.13.02-.24.07-.34.05-.09.12-.17.2-.23.08-.06.18-.11.29-.14.11-.03.22-.06.33-.07.12-.02.23-.03.35-.03.12,0,.22,0,.32,0,0-.13-.04-.23-.13-.3-.09-.07-.2-.11-.32-.11-.12,0-.22.02-.32.07-.1.05-.18.12-.26.2l-.38-.39c.13-.12.29-.22.46-.28.18-.06.36-.09.55-.09.21,0,.38.03.51.08s.24.13.32.23.14.22.17.37.05.32.05.51v1.17h-.65v-.29ZM231.18,14.51c-.05,0-.12,0-.2,0-.08,0-.16.02-.23.04-.07.02-.14.06-.19.1s-.08.11-.08.18c0,.09.04.15.11.19.07.04.15.06.23.06.07,0,.14,0,.2-.03s.12-.05.17-.08c.05-.03.09-.08.12-.13.03-.05.04-.12.04-.19v-.15h-.18Z"></path><rect class="l" x="232.32" y="14.05" width="1.16" height=".57"></rect><path class="l" d="M235.6,12.98c-.06-.08-.14-.13-.24-.17s-.2-.05-.29-.05c-.05,0-.11,0-.17.02s-.11.03-.16.06-.09.06-.12.11c-.03.04-.05.1-.05.16,0,.1.04.18.11.23.08.05.17.1.29.14.12.04.24.08.37.11.13.04.26.09.37.16.12.07.21.16.29.28.08.12.11.27.11.47s-.03.35-.1.49c-.07.14-.16.25-.28.35-.12.09-.26.16-.41.2-.16.04-.32.07-.49.07-.22,0-.42-.03-.61-.1-.19-.07-.36-.17-.52-.32l.53-.58c.08.1.17.18.29.23.12.06.23.08.36.08.06,0,.12,0,.18-.02s.12-.04.17-.06c.05-.03.09-.06.12-.11.03-.04.04-.1.04-.16,0-.1-.04-.18-.12-.24-.08-.06-.17-.11-.29-.15s-.24-.08-.38-.12-.26-.1-.38-.17c-.12-.07-.21-.16-.29-.27s-.12-.26-.12-.45.04-.34.11-.47.17-.25.28-.34c.12-.09.25-.16.41-.21s.31-.07.48-.07c.19,0,.37.03.55.08s.34.14.48.27l-.51.55Z"></path><path class="l" d="M238.74,15.12c-.11.15-.26.26-.43.34-.17.08-.35.12-.54.12s-.34-.03-.5-.09c-.16-.06-.29-.14-.41-.24s-.21-.23-.27-.38c-.07-.15-.1-.31-.1-.5s.03-.35.1-.5c.07-.15.16-.28.27-.38s.25-.19.41-.24c.16-.06.32-.09.5-.09.16,0,.31.03.45.09.13.06.25.14.34.24s.16.23.22.38c.05.15.08.31.08.5v.22h-1.65c.03.14.09.24.18.32.09.08.21.12.35.12.12,0,.22-.03.3-.08.08-.05.15-.12.21-.2l.5.36ZM238.14,14.1c0-.12-.04-.22-.12-.31-.08-.09-.19-.13-.32-.13-.08,0-.15.01-.21.04s-.11.06-.15.1c-.04.04-.08.09-.1.14-.02.05-.04.11-.04.16h.94Z"></path><path class="l" d="M239.28,13.21h.71v.37h0c.08-.14.17-.25.27-.32.1-.07.23-.11.39-.11.04,0,.08,0,.12,0s.08,0,.11.02v.65c-.05-.02-.1-.03-.15-.04s-.1-.01-.15-.01c-.14,0-.24.02-.32.06s-.14.09-.18.16c-.04.07-.07.15-.08.24-.01.09-.02.2-.02.31v.96h-.71v-2.3Z"></path><polygon class="l" points="240.97 13.21 241.73 13.21 242.31 14.78 242.32 14.78 242.86 13.21 243.58 13.21 242.67 15.51 241.92 15.51 240.97 13.21"></polygon><path class="l" d="M243.79,12.49c0-.11.04-.21.12-.29.08-.08.18-.12.29-.12s.21.04.29.12c.08.08.12.18.12.29s-.04.21-.12.29c-.08.08-.18.12-.29.12s-.21-.04-.29-.12c-.08-.08-.12-.18-.12-.29ZM243.85,13.21h.71v2.3h-.71v-2.3Z"></path><path class="l" d="M246.63,13.96c-.03-.05-.08-.09-.15-.13-.06-.03-.13-.05-.2-.05-.18,0-.32.05-.42.16-.1.11-.15.25-.15.42s.05.31.15.42c.1.11.24.16.42.16.08,0,.15-.02.2-.05s.11-.08.15-.12l.47.49c-.11.11-.24.19-.39.24-.15.05-.29.07-.43.07-.18,0-.34-.03-.5-.09-.16-.06-.29-.14-.41-.24s-.21-.23-.27-.38c-.07-.15-.1-.31-.1-.5s.03-.35.1-.5c.07-.15.16-.28.27-.38s.25-.19.41-.24c.16-.06.32-.09.5-.09.14,0,.28.02.43.07.15.05.28.13.39.24l-.47.49Z"></path><path class="l" d="M249.53,15.12c-.11.15-.26.26-.43.34-.17.08-.35.12-.54.12s-.34-.03-.5-.09c-.16-.06-.29-.14-.41-.24s-.21-.23-.27-.38c-.07-.15-.1-.31-.1-.5s.03-.35.1-.5c.07-.15.16-.28.27-.38s.25-.19.41-.24c.16-.06.32-.09.5-.09.16,0,.31.03.45.09.13.06.25.14.34.24s.16.23.22.38c.05.15.08.31.08.5v.22h-1.65c.03.14.09.24.18.32.09.08.21.12.35.12.12,0,.22-.03.3-.08.08-.05.15-.12.21-.2l.5.36ZM248.93,14.1c0-.12-.04-.22-.12-.31-.08-.09-.19-.13-.32-.13-.08,0-.15.01-.21.04s-.11.06-.15.1c-.04.04-.08.09-.1.14-.02.05-.04.11-.04.16h.94Z"></path><path class="l" d="M253.79,16.99l-1.61-.95c.3-.54.47-1.16.47-1.81v-.17c0-2.08-1.69-3.77-3.77-3.77h-24.64c-2.08,0-3.77,1.69-3.77,3.77v.17c0,2.08,1.69,3.77,3.77,3.77h24.64c.38,0,.75-.06,1.1-.17l.58,1.77c.11.33.4.56.75.6.03,0,.06,0,.09,0,.31,0,.61-.17.76-.45l.49-.87.95-.3c.33-.1.57-.39.61-.74.04-.35-.13-.68-.43-.86ZM248.87,17.12h-24.64c-1.59,0-2.89-1.3-2.89-2.89v-.17c0-1.59,1.3-2.89,2.89-2.89h24.64c1.59,0,2.89,1.3,2.89,2.89v.17c0,.49-.13.96-.35,1.37l-.69-.41c-.14-.08-.29-.12-.45-.12-.2,0-.39.07-.55.2-.28.23-.4.61-.28.96l.26.77c-.26.08-.54.12-.82.12ZM252.06,18.15l-.66,1.17-1.12-3.38,3.06,1.8-1.29.4Z"></path><rect class="j" x="103.98" y="47.79" width=".49" height="9.89"></rect><path class="j" d="M139.05,55.98h-28.2c-1.78,0-3.23-1.44-3.23-3.23s1.44-3.23,3.23-3.23h28.2c1.78,0,3.23,1.44,3.23,3.23s-1.44,3.23-3.23,3.23Z"></path><path class="l" d="M111.21,52.24c-.04-.06-.1-.1-.18-.12-.08-.03-.15-.04-.21-.04-.04,0-.08,0-.12.01s-.08.02-.12.04c-.04.02-.07.05-.09.08-.02.03-.04.07-.04.12,0,.07.03.13.08.17.06.04.13.07.21.1.09.03.18.06.27.08.1.03.19.07.27.12.09.05.16.12.21.21s.08.2.08.35-.03.26-.08.36c-.05.1-.12.19-.21.26-.09.07-.19.12-.3.15-.11.03-.24.05-.37.05-.16,0-.31-.02-.45-.07-.14-.05-.27-.13-.38-.24l.39-.43c.06.07.13.13.21.17.09.04.17.06.26.06.04,0,.09,0,.13-.02.05-.01.09-.03.12-.05.04-.02.06-.05.09-.08.02-.03.03-.07.03-.11,0-.07-.03-.13-.09-.18-.06-.04-.13-.08-.21-.11-.09-.03-.18-.06-.28-.09-.1-.03-.19-.07-.28-.12s-.16-.12-.21-.2c-.06-.08-.09-.19-.09-.33s.03-.25.08-.35c.05-.1.12-.18.21-.25s.19-.12.3-.15.23-.05.35-.05c.14,0,.28.02.41.06s.25.11.35.2l-.37.41Z"></path><polygon class="l" points="112 51.64 112.82 51.64 113.39 53.25 113.4 53.25 113.97 51.64 114.79 51.64 114.79 54.11 114.25 54.11 114.25 52.21 114.24 52.21 113.59 54.11 113.17 54.11 112.55 52.21 112.54 52.21 112.54 54.11 112 54.11 112 51.64"></polygon><polygon class="l" points="115.32 51.64 117 51.64 117 52.14 115.86 52.14 115.86 52.6 116.94 52.6 116.94 53.11 115.86 53.11 115.86 53.61 117.06 53.61 117.06 54.11 115.32 54.11 115.32 51.64"></polygon><path class="l" d="M118.44,52.61s-.08-.08-.15-.1c-.06-.02-.12-.03-.17-.03-.03,0-.06,0-.1.01s-.07.02-.1.04c-.03.02-.05.04-.07.06s-.03.06-.03.1c0,.06.02.11.07.14.04.03.1.06.17.08s.14.05.22.07.15.05.22.1c.07.04.13.1.17.17.05.07.07.16.07.28s-.02.21-.06.29-.1.15-.17.21c-.07.05-.15.09-.25.12-.09.03-.19.04-.29.04-.13,0-.25-.02-.36-.06-.11-.04-.21-.1-.31-.19l.31-.34c.05.06.1.11.17.14.07.03.14.05.21.05.04,0,.07,0,.11-.01.04,0,.07-.02.1-.04.03-.02.05-.04.07-.06.02-.03.03-.06.03-.09,0-.06-.02-.11-.07-.14-.05-.03-.1-.06-.17-.09-.07-.02-.14-.05-.23-.07-.08-.02-.16-.06-.23-.1-.07-.04-.13-.1-.17-.16-.05-.07-.07-.16-.07-.27s.02-.2.06-.28c.04-.08.1-.15.17-.2.07-.05.15-.09.24-.12.09-.03.19-.04.28-.04.11,0,.22.02.33.05.11.03.2.09.28.16l-.3.33Z"></path><path class="l" d="M122.39,53.94c-.16.08-.33.14-.5.18-.18.04-.35.06-.54.06-.19,0-.37-.03-.53-.09-.16-.06-.3-.15-.42-.26s-.21-.25-.28-.41c-.07-.16-.1-.34-.1-.54s.03-.38.1-.54c.07-.16.16-.3.28-.41.12-.11.26-.2.42-.26.16-.06.34-.09.53-.09s.38.02.55.07c.17.05.31.13.44.25l-.38.42c-.07-.08-.16-.14-.25-.17s-.21-.06-.35-.06c-.12,0-.22.02-.32.06-.09.04-.18.09-.24.17-.07.07-.12.16-.16.25-.04.1-.05.2-.05.32s.02.22.05.32c.04.1.09.18.16.25.07.07.15.13.24.17.09.04.2.06.32.06s.22-.01.31-.04.16-.05.21-.08v-.4h-.44v-.5h.97v1.29Z"></path><path class="l" d="M122.74,52.87c0-.2.03-.38.1-.54.07-.16.16-.3.28-.41.12-.11.26-.2.42-.26.16-.06.34-.09.53-.09s.37.03.54.09c.16.06.3.15.42.26.12.11.21.25.28.41s.1.34.1.54-.03.38-.1.54-.16.3-.28.41-.26.2-.42.26c-.16.06-.34.09-.54.09s-.37-.03-.53-.09c-.16-.06-.3-.15-.42-.26s-.21-.25-.28-.41c-.07-.16-.1-.34-.1-.54ZM123.31,52.87c0,.12.02.22.05.32.04.1.09.18.16.25.07.07.15.13.24.17.09.04.2.06.32.06s.22-.02.32-.06.18-.1.24-.17c.07-.07.12-.15.16-.25.04-.1.05-.2.05-.32s-.02-.22-.05-.32c-.04-.1-.09-.18-.16-.25s-.15-.13-.24-.17-.2-.06-.32-.06-.22.02-.32.06c-.09.04-.18.09-.24.17-.07.07-.12.16-.16.25-.04.1-.05.2-.05.32Z"></path><path class="l" d="M126.82,51.64h.82c.2,0,.39.02.56.07.18.04.33.12.47.21.13.1.24.23.32.39s.12.35.12.58c0,.2-.04.38-.11.53-.08.15-.18.28-.31.38-.13.1-.28.18-.44.24-.17.05-.34.08-.53.08h-.89v-2.48ZM127.36,53.61h.28c.13,0,.24-.01.35-.04.11-.03.2-.07.28-.13.08-.06.14-.14.19-.23.05-.1.07-.22.07-.36,0-.12-.02-.23-.07-.32s-.11-.16-.18-.22c-.08-.06-.17-.1-.27-.13s-.21-.04-.33-.04h-.32v1.47Z"></path><rect class="l" x="129.47" y="51.64" width=".55" height="2.48"></rect><path class="l" d="M132.75,53.94c-.16.08-.33.14-.5.18-.18.04-.35.06-.54.06-.19,0-.37-.03-.53-.09-.16-.06-.3-.15-.42-.26s-.21-.25-.28-.41c-.07-.16-.1-.34-.1-.54s.03-.38.1-.54c.07-.16.16-.3.28-.41.12-.11.26-.2.42-.26.16-.06.34-.09.53-.09s.38.02.55.07c.17.05.31.13.44.25l-.38.42c-.07-.08-.16-.14-.25-.17s-.21-.06-.35-.06c-.12,0-.22.02-.32.06-.09.04-.18.09-.24.17-.07.07-.12.16-.16.25-.04.1-.05.2-.05.32s.02.22.05.32c.04.1.09.18.16.25.07.07.15.13.24.17.09.04.2.06.32.06s.22-.01.31-.04.16-.05.21-.08v-.4h-.44v-.5h.97v1.29Z"></path><rect class="l" x="133.22" y="51.64" width=".55" height="2.48"></rect><polygon class="l" points="134.74 52.12 134.04 52.12 134.04 51.64 135.99 51.64 135.99 52.12 135.29 52.12 135.29 54.11 134.74 54.11 134.74 52.12"></polygon><path class="l" d="M136.77,51.64h.45l1.08,2.48h-.62l-.21-.52h-.96l-.21.52h-.6l1.07-2.48ZM136.98,52.36l-.3.77h.61l-.3-.77Z"></path><polygon class="l" points="138.57 51.64 139.11 51.64 139.11 53.61 140.12 53.61 140.12 54.11 138.57 54.11 138.57 51.64"></polygon><rect class="j" x="79.28" y="47.83" width=".49" height="2.01"></rect><polygon class="j" points="81.49 49.83 80.68 48.52 80.67 48.52 80.68 49.83 80.21 49.83 80.21 47.83 80.76 47.83 81.57 49.14 81.57 49.14 81.57 47.83 82.04 47.83 82.04 49.83 81.49 49.83"></polygon><polygon class="j" points="82.99 48.24 82.99 48.65 83.77 48.65 83.77 49.05 82.99 49.05 82.99 49.83 82.5 49.83 82.5 47.83 83.83 47.83 83.83 48.24 82.99 48.24"></polygon><path class="j" d="M86.23,48.82c0,.16-.03.3-.08.44-.05.13-.13.24-.23.34-.1.09-.21.17-.35.22-.14.05-.28.08-.44.08s-.3-.03-.44-.08c-.13-.05-.25-.12-.35-.22-.1-.09-.17-.21-.23-.34-.06-.13-.08-.28-.08-.44s.03-.31.08-.44c.06-.13.13-.24.23-.33.1-.09.21-.16.35-.21.13-.05.28-.07.44-.07s.3.02.44.07c.13.05.25.12.35.21.1.09.17.2.23.33.05.13.08.27.08.44ZM85.71,48.82c0-.09-.01-.17-.04-.24-.03-.08-.07-.14-.12-.19-.05-.05-.11-.1-.18-.13-.07-.03-.15-.05-.23-.05s-.16.02-.23.05c-.07.03-.13.07-.18.13-.05.05-.09.12-.12.19-.03.08-.04.16-.04.24s.01.17.04.25c.03.08.07.14.12.2.05.05.11.1.18.13.07.03.15.05.23.05s.16-.02.23-.05c.07-.03.13-.07.18-.13.05-.05.09-.12.12-.2.03-.08.04-.16.04-.25Z"></path><path class="j" d="M88,49.8c-.13.06-.28.09-.45.09-.16,0-.3-.03-.43-.08-.13-.05-.25-.12-.34-.22-.1-.09-.17-.2-.23-.34-.05-.13-.08-.27-.08-.43s.03-.31.08-.44c.06-.13.13-.24.23-.33.1-.09.21-.16.35-.21.13-.05.28-.07.43-.07.14,0,.28.02.42.08.14.05.25.12.34.22l-.33.33c-.05-.06-.11-.11-.18-.14-.07-.03-.15-.04-.23-.04-.09,0-.16.02-.23.05-.07.03-.13.07-.18.13-.05.05-.09.12-.12.19-.03.08-.04.16-.04.25s.01.17.04.25c.03.08.07.14.12.19.05.05.11.1.18.13.07.03.15.05.23.05.1,0,.18-.02.25-.06.07-.04.13-.09.17-.15l.34.32c-.09.1-.2.18-.33.24Z"></path><path class="j" d="M90.62,48.82c0,.16-.03.3-.08.44-.06.13-.13.24-.23.34-.1.09-.21.17-.35.22-.13.05-.28.08-.44.08s-.3-.03-.44-.08c-.13-.05-.25-.12-.35-.22-.1-.09-.17-.21-.23-.34-.06-.13-.08-.28-.08-.44s.03-.31.08-.44c.06-.13.13-.24.23-.33.1-.09.21-.16.35-.21.13-.05.28-.07.44-.07s.3.02.44.07c.14.05.25.12.35.21.1.09.17.2.23.33.06.13.08.27.08.44ZM90.1,48.82c0-.09-.01-.17-.04-.24-.03-.08-.07-.14-.12-.19-.05-.05-.11-.1-.18-.13-.07-.03-.15-.05-.23-.05s-.16.02-.23.05c-.07.03-.13.07-.18.13-.05.05-.09.12-.12.19-.03.08-.04.16-.04.24s.01.17.04.25c.03.08.07.14.12.2.05.05.11.1.18.13.07.03.15.05.23.05s.16-.02.23-.05c.07-.03.13-.07.18-.13.05-.05.09-.12.12-.2.03-.08.04-.16.04-.25Z"></path><polygon class="j" points="92.72 49.83 92.72 48.41 92.72 48.41 92.2 49.83 91.85 49.83 91.34 48.41 91.34 48.41 91.34 49.83 90.89 49.83 90.89 47.83 91.58 47.83 92.04 49.11 92.05 49.11 92.49 47.83 93.2 47.83 93.2 49.83 92.72 49.83"></polygon><polygon class="j" points="95.47 49.83 95.47 48.41 95.47 48.41 94.94 49.83 94.6 49.83 94.09 48.41 94.09 48.41 94.09 49.83 93.64 49.83 93.64 47.83 94.33 47.83 94.79 49.11 94.8 49.11 95.24 47.83 95.94 47.83 95.94 49.83 95.47 49.83"></polygon><polygon class="j" points="81.12 52.43 81.12 51.01 81.11 51.01 80.59 52.43 80.25 52.43 79.74 51.01 79.73 51.01 79.73 52.43 79.28 52.43 79.28 50.42 79.97 50.42 80.43 51.71 80.45 51.71 80.88 50.42 81.59 50.42 81.59 52.43 81.12 52.43"></polygon><polygon class="j" points="81.95 52.43 81.95 50.42 83.31 50.42 83.31 50.83 82.42 50.83 82.42 51.21 83.26 51.21 83.26 51.6 82.42 51.6 82.42 52.02 83.36 52.02 83.36 52.43 81.95 52.43"></polygon><path class="j" d="M85.54,51.42c0,.18-.03.33-.1.45-.07.13-.15.23-.26.31-.11.08-.23.14-.36.18-.13.04-.27.06-.41.06h-.75v-2.01h.73c.14,0,.28.02.42.05.14.03.26.09.37.16.11.08.2.18.26.31.07.13.1.29.1.48ZM85.03,51.42c0-.11-.02-.21-.06-.28-.04-.08-.09-.13-.15-.18-.06-.04-.13-.08-.21-.09-.08-.02-.16-.03-.24-.03h-.24v1.17h.23c.09,0,.17-.01.25-.03.08-.02.15-.05.21-.1.06-.05.11-.11.15-.18.04-.08.06-.17.06-.28Z"></path><rect class="j" x="85.8" y="50.42" width=".49" height="2.01"></rect><path class="j" d="M88.13,52.43l-.16-.39h-.78l-.15.39h-.53l.85-2.01h.47l.84,2.01h-.54ZM87.59,50.96l-.26.69h.51l-.25-.69Z"></path><path class="j" d="M81.16,54.02c0,.18-.03.33-.1.46-.07.13-.15.23-.26.31-.11.08-.23.14-.36.18-.13.04-.27.06-.41.06h-.75v-2.01h.73c.14,0,.28.02.42.05.14.03.26.09.37.16.11.08.2.18.26.31.07.13.1.29.1.48ZM80.66,54.02c0-.11-.02-.21-.05-.28-.04-.07-.09-.13-.15-.18-.06-.04-.13-.08-.21-.1-.08-.02-.16-.03-.24-.03h-.24v1.17h.23c.09,0,.17,0,.25-.03.08-.02.15-.05.21-.1.06-.05.11-.11.15-.18.04-.08.05-.17.05-.28Z"></path><polygon class="j" points="81.45 55.03 81.45 53.02 82.8 53.02 82.8 53.43 81.92 53.43 81.92 53.81 82.76 53.81 82.76 54.2 81.92 54.2 81.92 54.61 82.86 54.61 82.86 55.03 81.45 55.03"></polygon><polygon class="j" points="84.29 55.03 83.8 55.03 83.04 53.02 83.58 53.02 84.05 54.44 84.06 54.44 84.53 53.02 85.07 53.02 84.29 55.03"></polygon><polygon class="j" points="85.31 55.03 85.31 53.02 86.67 53.02 86.67 53.43 85.78 53.43 85.78 53.81 86.62 53.81 86.62 54.2 85.78 54.2 85.78 54.61 86.72 54.61 86.72 55.03 85.31 55.03"></polygon><polygon class="j" points="87.03 55.03 87.03 53.02 87.53 53.02 87.53 54.61 88.31 54.61 88.31 55.03 87.03 55.03"></polygon><path class="j" d="M90.66,54.02c0,.16-.03.3-.08.44-.05.13-.13.24-.23.34-.1.09-.21.17-.35.22-.13.05-.28.08-.44.08s-.3-.03-.44-.08c-.13-.05-.25-.12-.35-.22-.1-.09-.17-.21-.23-.34-.06-.13-.08-.28-.08-.44s.03-.31.08-.43c.06-.13.13-.24.23-.33.1-.09.21-.16.35-.21.13-.05.28-.07.44-.07s.3.02.44.07c.13.05.25.12.35.21.1.09.17.2.23.33.06.13.08.27.08.43ZM90.14,54.02c0-.09-.01-.17-.04-.24-.03-.07-.07-.14-.12-.19-.05-.05-.11-.1-.18-.13-.07-.03-.15-.05-.23-.05s-.16.01-.23.05c-.07.03-.13.07-.18.13-.05.05-.09.12-.12.19-.03.08-.04.16-.04.24s.01.17.04.25c.03.08.07.14.12.2.05.06.11.1.18.13.07.03.15.05.23.05s.16-.02.23-.05c.07-.03.13-.07.18-.13.05-.05.09-.12.12-.2.03-.08.04-.16.04-.25Z"></path><path class="j" d="M92.47,53.64c0,.12-.02.22-.07.3-.04.08-.1.15-.18.19-.07.05-.16.09-.26.11-.1.02-.2.03-.3.03h-.24v.76h-.49v-2.01h.74c.11,0,.21.01.31.03.1.02.18.06.25.11.07.05.13.11.17.19.04.08.06.18.06.29ZM91.98,53.64s0-.09-.03-.12c-.02-.03-.04-.05-.08-.07-.03-.02-.07-.03-.11-.03-.04,0-.08,0-.13,0h-.21v.47h.2s.09,0,.13-.01c.04,0,.08-.02.11-.04.03-.02.06-.04.08-.08.02-.03.03-.07.03-.12Z"></path><polygon class="j" points="94.52 55.03 94.52 53.61 94.52 53.61 93.99 55.03 93.65 55.03 93.14 53.61 93.14 53.61 93.14 55.03 92.68 55.03 92.68 53.02 93.38 53.02 93.84 54.31 93.85 54.31 94.29 53.02 94.99 53.02 94.99 55.03 94.52 55.03"></polygon><polygon class="j" points="95.42 55.03 95.42 53.02 96.78 53.02 96.78 53.43 95.89 53.43 95.89 53.81 96.73 53.81 96.73 54.2 95.89 54.2 95.89 54.61 96.83 54.61 96.83 55.03 95.42 55.03"></polygon><polygon class="j" points="98.43 55.03 97.62 53.72 97.61 53.72 97.61 55.03 97.15 55.03 97.15 53.02 97.7 53.02 98.51 54.33 98.51 54.33 98.51 53.02 98.98 53.02 98.98 55.03 98.43 55.03"></polygon><polygon class="j" points="100.28 53.44 100.28 55.03 99.79 55.03 99.79 53.44 99.22 53.44 99.22 53.02 100.85 53.02 100.85 53.44 100.28 53.44"></polygon><path class="j" d="M80.9,57.63l-.16-.39h-.78l-.15.39h-.53l.85-2.01h.47l.84,2.01h-.54ZM80.36,56.15l-.26.69h.51l-.25-.69Z"></path><path class="j" d="M83.19,57.2c-.04.1-.1.18-.18.25-.08.07-.17.13-.27.17-.11.04-.23.06-.36.06s-.25-.02-.36-.06c-.11-.04-.2-.09-.27-.17-.07-.07-.13-.16-.17-.25-.04-.1-.06-.21-.06-.33v-1.25h.48v1.21c0,.05,0,.11.02.16.01.05.04.09.07.13.03.04.07.07.12.09.05.02.11.03.18.03s.13-.01.17-.03c.05-.02.09-.05.12-.09.03-.04.05-.08.07-.13.01-.05.02-.1.02-.16v-1.21h.49v1.25c0,.12-.02.23-.06.33Z"></path><polygon class="j" points="84.54 56.03 84.54 57.63 84.05 57.63 84.05 56.03 83.48 56.03 83.48 55.62 85.11 55.62 85.11 56.03 84.54 56.03"></polygon><polygon class="j" points="86.6 57.63 86.6 56.79 85.81 56.79 85.81 57.63 85.32 57.63 85.32 55.62 85.81 55.62 85.81 56.38 86.6 56.38 86.6 55.62 87.09 55.62 87.09 57.63 86.6 57.63"></polygon><path class="j" d="M89.52,56.61c0,.16-.03.3-.08.43-.05.13-.13.24-.23.34-.1.09-.21.17-.35.22-.13.05-.28.08-.44.08s-.3-.03-.44-.08c-.13-.05-.25-.12-.35-.22-.1-.09-.17-.21-.23-.34-.06-.13-.08-.28-.08-.43s.03-.31.08-.44c.05-.13.13-.24.23-.33.1-.09.21-.16.35-.21.13-.05.28-.07.44-.07s.3.02.44.07c.13.05.25.12.35.21.1.09.17.2.23.33.06.13.08.27.08.44ZM89,56.61c0-.09-.01-.17-.04-.24-.03-.08-.07-.14-.12-.19-.05-.05-.11-.1-.18-.13-.07-.03-.15-.05-.23-.05s-.16.02-.23.05c-.07.03-.13.07-.18.13-.05.05-.09.12-.12.19-.03.08-.04.16-.04.24s.01.17.04.25c.03.08.07.14.12.2.05.06.11.1.18.13.07.03.15.05.23.05s.16-.02.23-.05c.07-.03.13-.07.18-.13.05-.05.09-.12.12-.2.03-.08.04-.16.04-.25Z"></path><path class="j" d="M90.86,57.63l-.44-.8h-.17v.8h-.48v-2.01h.77c.1,0,.19.01.28.03.09.02.17.05.25.1.07.05.13.11.18.19.04.08.07.17.07.29,0,.14-.04.25-.11.34-.07.09-.18.16-.31.2l.53.86h-.57ZM90.84,56.23s0-.09-.03-.11c-.02-.03-.05-.05-.08-.07-.03-.02-.07-.03-.11-.03-.04,0-.08,0-.11,0h-.26v.47h.23s.08,0,.12-.01c.04,0,.08-.02.11-.04.03-.02.06-.04.08-.07.02-.03.03-.07.03-.12Z"></path><rect class="j" x="91.67" y="55.62" width=".49" height="2.01"></rect><polygon class="j" points="93.44 56.03 93.44 57.63 92.95 57.63 92.95 56.03 92.38 56.03 92.38 55.62 94.01 55.62 94.01 56.03 93.44 56.03"></polygon><polygon class="j" points="95.41 56.77 95.41 57.63 94.92 57.63 94.92 56.77 94.16 55.62 94.75 55.62 95.18 56.36 95.61 55.62 96.18 55.62 95.41 56.77"></polygon><polygon class="m" points="65.91 56.49 65.91 48.99 68.09 47.83 68.09 57.63 65.91 56.49"></polygon><polygon class="n" points="61.27 57.63 61.27 47.83 63.44 48.99 63.44 56.49 61.27 57.63"></polygon><polygon class="r" points="73.08 57.63 70.56 57.63 70.56 51.33 73.08 57.63"></polygon><polygon class="q" points="74.28 57.63 76.8 57.63 76.8 51.33 74.28 57.63"></polygon><polygon class="p" points="71.48 47.83 75.88 47.83 73.68 52.72 71.48 47.83"></polygon><path class="k" d="M17.66,51.28l1.32,3.07h-.63l-.29-.7h-1.33l-.28.7h-.61l1.34-3.07h.47ZM16.93,53.19h.96l-.47-1.25-.48,1.25Z"></path><path class="k" d="M21.18,53.02v1.33h-.52v-1.08c0-.42-.13-.59-.38-.59-.33,0-.48.24-.48.52v1.15h-.52v-2.08h.5v.33h0c.13-.27.36-.39.64-.39.62,0,.76.48.76.8Z"></path><path class="k" d="M23.66,51.57c0,.19-.15.31-.34.31s-.33-.14-.33-.31.14-.31.33-.31.34.13.34.31ZM23.59,52.27v2.08h-.52v-2.08h.52Z"></path><path class="k" d="M26.09,53.02v1.33h-.52v-1.08c0-.42-.13-.59-.38-.59-.33,0-.48.24-.48.52v1.15h-.52v-2.08h.5v.33h0c.13-.27.36-.39.64-.39.62,0,.76.48.76.8Z"></path><path class="k" d="M27.28,51.57c0,.19-.15.31-.34.31s-.33-.14-.33-.31.14-.31.33-.31.34.13.34.31ZM27.2,52.27v2.08h-.52v-2.08h.52Z"></path><path class="k" d="M28.51,51.67v.6h.57v.44h-.57v.92c0,.22.09.33.29.33.13,0,.24-.03.28-.07v.44c-.1.05-.3.07-.41.07-.49,0-.68-.19-.68-.72v-.98h-.43v-.44h.43v-.6h.52Z"></path><path class="k" d="M30.09,51.57c0,.19-.15.31-.34.31s-.33-.14-.33-.31.14-.31.33-.31.34.13.34.31ZM30.02,52.27v2.08h-.52v-2.08h.52Z"></path><path class="k" d="M32.39,53.11v1.25h-.47v-.29h-.01c-.15.23-.39.34-.67.34-.43,0-.76-.24-.76-.63,0-.48.39-.73,1.28-.73h.16v-.06c0-.24-.19-.39-.48-.39-.22,0-.41.09-.56.22l-.27-.27c.19-.19.48-.33.89-.33.71,0,.89.4.89.89ZM31.37,54.02c.36,0,.52-.2.52-.46v-.13h-.15c-.46,0-.74.1-.74.32,0,.18.17.27.37.27Z"></path><path class="k" d="M33.66,51.67v.6h.57v.44h-.57v.92c0,.22.09.33.29.33.13,0,.24-.03.28-.07v.44c-.1.05-.3.07-.41.07-.49,0-.68-.19-.68-.72v-.98h-.43v-.44h.43v-.6h.52Z"></path><path class="k" d="M35.24,51.57c0,.19-.15.31-.34.31s-.33-.14-.33-.31.14-.31.33-.31.34.13.34.31ZM35.17,52.27v2.08h-.52v-2.08h.52Z"></path><path class="k" d="M36.05,52.27l.56,1.46h0l.56-1.46h.53l-.82,2.08h-.56l-.85-2.08h.57Z"></path><path class="k" d="M40.02,53.35v.15h-1.59c.03.3.26.5.56.5.23,0,.41-.1.56-.28l.37.28c-.23.28-.53.42-.88.42-.64,0-1.13-.44-1.13-1.09s.49-1.09,1.13-1.09.98.5.98,1.13ZM39.5,53.11c0-.33-.23-.5-.53-.5s-.49.2-.53.5h1.07Z"></path><path class="k" d="M43.95,53.32c0,.65-.5,1.09-1.13,1.09s-1.13-.44-1.13-1.09.5-1.09,1.13-1.09,1.13.44,1.13,1.09ZM42.82,53.94c.36,0,.61-.28.61-.63s-.26-.63-.62-.63-.61.27-.61.63.26.63.61.63Z"></path><path class="k" d="M45.73,51.05l-.03.44c-.09-.02-.15-.03-.22-.03-.23,0-.33.12-.33.41v.4h.48v.44h-.48v1.64h-.52v-1.64h-.43v-.44h.43v-.33c0-.68.24-.92.78-.92.07,0,.23,0,.33.03Z"></path></g></svg>